<?xml version="1.0" encoding="UTF-8" standalone="no"?>
<!DOCTYPE svg PUBLIC "-//W3C//DTD SVG 1.1//EN"
 "http://www.w3.org/Graphics/SVG/1.1/DTD/svg11.dtd">
<!-- Generated by graphviz version 2.38.0 (20140413.2041)
 -->
<!-- Title: g Pages: 1 -->
<svg width="830pt" height="555pt"
 viewBox="0.00 0.00 829.50 555.00" xmlns="http://www.w3.org/2000/svg" xmlns:xlink="http://www.w3.org/1999/xlink">
<g id="graph0" class="graph" transform="scale(1 1) rotate(0) translate(4 551)">
<title>g</title>
<polygon fill="white" stroke="none" points="-4,4 -4,-551 825.5,-551 825.5,4 -4,4"/>
<!-- IMDB -->
<g id="node1" class="node"><title>IMDB</title>
<ellipse fill="none" stroke="black" cx="229.5" cy="-529" rx="33.5952" ry="18"/>
<text text-anchor="middle" x="229.5" y="-525.3" font-family="Times New Roman,serif" font-size="14.00">IMDB</text>
</g>
<!-- IMDB_table -->
<g id="node2" class="node"><title>IMDB_table</title>
<polygon fill="none" stroke="black" points="201,-438.5 201,-474.5 330,-474.5 330,-438.5 201,-438.5"/>
<text text-anchor="middle" x="230" y="-452.8" font-family="Times New Roman,serif" font-size="14.00">Movies</text>
<polyline fill="none" stroke="black" points="259,-438.5 259,-474.5 "/>
<text text-anchor="middle" x="294.5" y="-452.8" font-family="Times New Roman,serif" font-size="14.00">TVshows</text>
</g>
<!-- IMDB&#45;&gt;IMDB_table -->
<g id="edge1" class="edge"><title>IMDB&#45;&gt;IMDB_table:f0</title>
<path fill="none" stroke="black" d="M229.5,-510.814C229.5,-503.278 229.5,-494.101 229.5,-485.058"/>
<polygon fill="black" stroke="black" points="233,-485 229.5,-475 226,-485 233,-485"/>
</g>
<!-- Movies_table -->
<g id="node3" class="node"><title>Movies_table</title>
<polygon fill="none" stroke="black" points="158.5,-365.5 158.5,-401.5 218.5,-401.5 218.5,-365.5 158.5,-365.5"/>
<text text-anchor="middle" x="188.5" y="-379.8" font-family="Times New Roman,serif" font-size="14.00">Movie+</text>
</g>
<!-- IMDB_table&#45;&gt;Movies_table -->
<g id="edge2" class="edge"><title>IMDB_table:f0&#45;&gt;Movies_table</title>
<path fill="none" stroke="black" d="M229.5,-438C229.5,-427.358 224.326,-417.526 217.655,-409.271"/>
<polygon fill="black" stroke="black" points="220.237,-406.908 210.919,-401.865 215.058,-411.618 220.237,-406.908"/>
</g>
<!-- TVshows_table -->
<g id="node8" class="node"><title>TVshows_table</title>
<polygon fill="none" stroke="black" points="298.5,-365.5 298.5,-401.5 372.5,-401.5 372.5,-365.5 298.5,-365.5"/>
<text text-anchor="middle" x="335.5" y="-379.8" font-family="Times New Roman,serif" font-size="14.00">TVshow+</text>
</g>
<!-- IMDB_table&#45;&gt;TVshows_table -->
<g id="edge7" class="edge"><title>IMDB_table:f1&#45;&gt;TVshows_table</title>
<path fill="none" stroke="black" d="M294.5,-438C294.5,-427.358 299.674,-417.526 306.345,-409.271"/>
<polygon fill="black" stroke="black" points="308.942,-411.618 313.081,-401.865 303.763,-406.908 308.942,-411.618"/>
</g>
<!-- Movie_table -->
<g id="node4" class="node"><title>Movie_table</title>
<polygon fill="none" stroke="black" points="45.5,-292.5 45.5,-328.5 323.5,-328.5 323.5,-292.5 45.5,-292.5"/>
<text text-anchor="middle" x="66" y="-306.8" font-family="Times New Roman,serif" font-size="14.00">Title</text>
<polyline fill="none" stroke="black" points="86.5,-292.5 86.5,-328.5 "/>
<text text-anchor="middle" x="110" y="-306.8" font-family="Times New Roman,serif" font-size="14.00">Crew</text>
<polyline fill="none" stroke="black" points="133.5,-292.5 133.5,-328.5 "/>
<text text-anchor="middle" x="161.5" y="-306.8" font-family="Times New Roman,serif" font-size="14.00">Genres</text>
<polyline fill="none" stroke="black" points="189.5,-292.5 189.5,-328.5 "/>
<text text-anchor="middle" x="230" y="-306.8" font-family="Times New Roman,serif" font-size="14.00">Description</text>
<polyline fill="none" stroke="black" points="270.5,-292.5 270.5,-328.5 "/>
<text text-anchor="middle" x="297" y="-306.8" font-family="Times New Roman,serif" font-size="14.00">Rating</text>
</g>
<!-- Movies_table&#45;&gt;Movie_table -->
<g id="edge3" class="edge"><title>Movies_table&#45;&gt;Movie_table:f0</title>
<path fill="none" stroke="black" d="M158.411,-382C125.268,-379.829 75.4897,-371.174 66.8126,-339.175"/>
<polygon fill="black" stroke="black" points="70.2507,-338.47 65.5,-329 63.3083,-339.366 70.2507,-338.47"/>
</g>
<!-- Crew_table -->
<g id="node5" class="node"><title>Crew_table</title>
<polygon fill="none" stroke="black" points="0,-219.5 0,-255.5 107,-255.5 107,-219.5 0,-219.5"/>
<text text-anchor="middle" x="31" y="-233.8" font-family="Times New Roman,serif" font-size="14.00">Director</text>
<polyline fill="none" stroke="black" points="62,-219.5 62,-255.5 "/>
<text text-anchor="middle" x="84.5" y="-233.8" font-family="Times New Roman,serif" font-size="14.00">Stars</text>
</g>
<!-- Movie_table&#45;&gt;Crew_table -->
<g id="edge4" class="edge"><title>Movie_table:f1&#45;&gt;Crew_table:f0</title>
<path fill="none" stroke="black" d="M109.5,-292C109.5,-257.485 46.2853,-286.788 32.9509,-265.734"/>
<polygon fill="black" stroke="black" points="36.3358,-264.843 30.5,-256 29.5477,-266.552 36.3358,-264.843"/>
</g>
<!-- Genres_table -->
<g id="node6" class="node"><title>Genres_table</title>
<polygon fill="none" stroke="black" points="125,-219.5 125,-255.5 184,-255.5 184,-219.5 125,-219.5"/>
<text text-anchor="middle" x="154.5" y="-233.8" font-family="Times New Roman,serif" font-size="14.00">Genre+</text>
</g>
<!-- Movie_table&#45;&gt;Genres_table -->
<g id="edge5" class="edge"><title>Movie_table:f2&#45;&gt;Genres_table</title>
<path fill="none" stroke="black" d="M161.5,-292C161.5,-283.438 160.608,-274.169 159.46,-265.79"/>
<polygon fill="black" stroke="black" points="162.899,-265.124 157.918,-255.773 155.98,-266.189 162.899,-265.124"/>
</g>
<!-- Description_table -->
<g id="node7" class="node"><title>Description_table</title>
<polygon fill="none" stroke="black" points="202.5,-219.5 202.5,-255.5 312.5,-255.5 312.5,-219.5 202.5,-219.5"/>
<text text-anchor="middle" x="237.5" y="-233.8" font-family="Times New Roman,serif" font-size="14.00">Language</text>
<polyline fill="none" stroke="black" points="272.5,-219.5 272.5,-255.5 "/>
<text text-anchor="middle" x="292.5" y="-233.8" font-family="Times New Roman,serif" font-size="14.00">year</text>
</g>
<!-- Movie_table&#45;&gt;Description_table -->
<g id="edge6" class="edge"><title>Movie_table:f3&#45;&gt;Description_table:f0</title>
<path fill="none" stroke="black" d="M230.5,-292C230.5,-271.73 209.593,-274.988 202.5,-256 201.509,-253.348 200.109,-250.334 199.031,-247.519"/>
<polygon fill="black" stroke="black" points="202.506,-248.047 201.5,-237.5 195.709,-246.372 202.506,-248.047"/>
</g>
<!-- TVshow_table -->
<g id="node9" class="node"><title>TVshow_table</title>
<polygon fill="none" stroke="black" points="370,-292.5 370,-328.5 711,-328.5 711,-292.5 370,-292.5"/>
<text text-anchor="middle" x="390.5" y="-306.8" font-family="Times New Roman,serif" font-size="14.00">Title</text>
<polyline fill="none" stroke="black" points="411,-292.5 411,-328.5 "/>
<text text-anchor="middle" x="434.5" y="-306.8" font-family="Times New Roman,serif" font-size="14.00">Crew</text>
<polyline fill="none" stroke="black" points="458,-292.5 458,-328.5 "/>
<text text-anchor="middle" x="486" y="-306.8" font-family="Times New Roman,serif" font-size="14.00">Genres</text>
<polyline fill="none" stroke="black" points="514,-292.5 514,-328.5 "/>
<text text-anchor="middle" x="545.5" y="-306.8" font-family="Times New Roman,serif" font-size="14.00">Seasons</text>
<polyline fill="none" stroke="black" points="577,-292.5 577,-328.5 "/>
<text text-anchor="middle" x="617.5" y="-306.8" font-family="Times New Roman,serif" font-size="14.00">Description</text>
<polyline fill="none" stroke="black" points="658,-292.5 658,-328.5 "/>
<text text-anchor="middle" x="684.5" y="-306.8" font-family="Times New Roman,serif" font-size="14.00">Rating</text>
</g>
<!-- TVshows_table&#45;&gt;TVshow_table -->
<g id="edge8" class="edge"><title>TVshows_table&#45;&gt;TVshow_table:f0</title>
<path fill="none" stroke="black" d="M367.494,-365.396C376.757,-358.551 385.322,-349.755 388.828,-339.192"/>
<polygon fill="black" stroke="black" points="392.335,-339.435 390.5,-329 385.427,-338.301 392.335,-339.435"/>
</g>
<!-- Crew_table2 -->
<g id="node10" class="node"><title>Crew_table2</title>
<polygon fill="none" stroke="black" points="331,-219.5 331,-255.5 438,-255.5 438,-219.5 331,-219.5"/>
<text text-anchor="middle" x="362" y="-233.8" font-family="Times New Roman,serif" font-size="14.00">Director</text>
<polyline fill="none" stroke="black" points="393,-219.5 393,-255.5 "/>
<text text-anchor="middle" x="415.5" y="-233.8" font-family="Times New Roman,serif" font-size="14.00">Stars</text>
</g>
<!-- TVshow_table&#45;&gt;Crew_table2 -->
<g id="edge9" class="edge"><title>TVshow_table:f1&#45;&gt;Crew_table2:f0</title>
<path fill="none" stroke="black" d="M434.5,-292C434.5,-259.923 377.102,-284.87 364.098,-265.713"/>
<polygon fill="black" stroke="black" points="367.465,-264.756 361.5,-256 360.703,-266.565 367.465,-264.756"/>
</g>
<!-- Genres_table2 -->
<g id="node11" class="node"><title>Genres_table2</title>
<polygon fill="none" stroke="black" points="456,-219.5 456,-255.5 515,-255.5 515,-219.5 456,-219.5"/>
<text text-anchor="middle" x="485.5" y="-233.8" font-family="Times New Roman,serif" font-size="14.00">Genre+</text>
</g>
<!-- TVshow_table&#45;&gt;Genres_table2 -->
<g id="edge10" class="edge"><title>TVshow_table:f2&#45;&gt;Genres_table2</title>
<path fill="none" stroke="black" d="M485.5,-292C485.5,-283.51 485.5,-274.262 485.5,-265.88"/>
<polygon fill="black" stroke="black" points="489,-265.848 485.5,-255.848 482,-265.848 489,-265.848"/>
</g>
<!-- Seasons_table -->
<g id="node12" class="node"><title>Seasons_table</title>
<polygon fill="none" stroke="black" points="533.5,-219.5 533.5,-255.5 693.5,-255.5 693.5,-219.5 533.5,-219.5"/>
<text text-anchor="middle" x="566" y="-233.8" font-family="Times New Roman,serif" font-size="14.00">Season+</text>
<polyline fill="none" stroke="black" points="598.5,-219.5 598.5,-255.5 "/>
<text text-anchor="middle" x="646" y="-233.8" font-family="Times New Roman,serif" font-size="14.00">NoOfSeasons</text>
</g>
<!-- TVshow_table&#45;&gt;Seasons_table -->
<g id="edge11" class="edge"><title>TVshow_table:f3&#45;&gt;Seasons_table:f0</title>
<path fill="none" stroke="black" d="M545.5,-292C545.5,-277.844 557.464,-274.999 562.885,-265.968"/>
<polygon fill="black" stroke="black" points="566.348,-266.561 565.5,-256 559.577,-264.785 566.348,-266.561"/>
</g>
<!-- Description_table2 -->
<g id="node16" class="node"><title>Description_table2</title>
<polygon fill="none" stroke="black" points="711.5,-219.5 711.5,-255.5 821.5,-255.5 821.5,-219.5 711.5,-219.5"/>
<text text-anchor="middle" x="746.5" y="-233.8" font-family="Times New Roman,serif" font-size="14.00">Language</text>
<polyline fill="none" stroke="black" points="781.5,-219.5 781.5,-255.5 "/>
<text text-anchor="middle" x="801.5" y="-233.8" font-family="Times New Roman,serif" font-size="14.00">year</text>
</g>
<!-- TVshow_table&#45;&gt;Description_table2 -->
<g id="edge15" class="edge"><title>TVshow_table:f4&#45;&gt;Description_table2:f0</title>
<path fill="none" stroke="black" d="M617.5,-292C617.5,-250.974 673.381,-284.901 702.5,-256 705.182,-253.338 705.431,-249.629 705.494,-246.231"/>
<polygon fill="black" stroke="black" points="708.563,-247.916 710.5,-237.5 702.49,-244.435 708.563,-247.916"/>
</g>
<!-- Season_table -->
<g id="node13" class="node"><title>Season_table</title>
<polygon fill="none" stroke="black" points="531.5,-146.5 531.5,-182.5 753.5,-182.5 753.5,-146.5 531.5,-146.5"/>
<text text-anchor="middle" x="565.5" y="-160.8" font-family="Times New Roman,serif" font-size="14.00">Episodes</text>
<polyline fill="none" stroke="black" points="599.5,-146.5 599.5,-182.5 "/>
<text text-anchor="middle" x="650" y="-160.8" font-family="Times New Roman,serif" font-size="14.00">NoOfEpisodes</text>
<polyline fill="none" stroke="black" points="700.5,-146.5 700.5,-182.5 "/>
<text text-anchor="middle" x="727" y="-160.8" font-family="Times New Roman,serif" font-size="14.00">Rating</text>
</g>
<!-- Seasons_table&#45;&gt;Season_table -->
<g id="edge12" class="edge"><title>Seasons_table:f0&#45;&gt;Season_table:f0</title>
<path fill="none" stroke="black" d="M565.5,-219C565.5,-207 565.5,-201.75 565.5,-193.125"/>
<polygon fill="black" stroke="black" points="569,-193 565.5,-183 562,-193 569,-193"/>
</g>
<!-- Episodes_table -->
<g id="node14" class="node"><title>Episodes_table</title>
<polygon fill="none" stroke="black" points="530,-73.5 530,-109.5 601,-109.5 601,-73.5 530,-73.5"/>
<text text-anchor="middle" x="565.5" y="-87.8" font-family="Times New Roman,serif" font-size="14.00">Episode+</text>
</g>
<!-- Season_table&#45;&gt;Episodes_table -->
<g id="edge13" class="edge"><title>Season_table:f0&#45;&gt;Episodes_table</title>
<path fill="none" stroke="black" d="M565.5,-146C565.5,-137.51 565.5,-128.262 565.5,-119.88"/>
<polygon fill="black" stroke="black" points="569,-119.848 565.5,-109.848 562,-119.848 569,-119.848"/>
</g>
<!-- Episode_table -->
<g id="node15" class="node"><title>Episode_table</title>
<polygon fill="none" stroke="black" points="545.5,-0.5 545.5,-36.5 639.5,-36.5 639.5,-0.5 545.5,-0.5"/>
<text text-anchor="middle" x="566" y="-14.8" font-family="Times New Roman,serif" font-size="14.00">Title</text>
<polyline fill="none" stroke="black" points="586.5,-0.5 586.5,-36.5 "/>
<text text-anchor="middle" x="613" y="-14.8" font-family="Times New Roman,serif" font-size="14.00">Rating</text>
</g>
<!-- Episodes_table&#45;&gt;Episode_table -->
<g id="edge14" class="edge"><title>Episodes_table&#45;&gt;Episode_table:f0</title>
<path fill="none" stroke="black" d="M565.5,-73.1521C565.5,-65.5451 565.5,-56.2817 565.5,-47.1533"/>
<polygon fill="black" stroke="black" points="569,-47 565.5,-37 562,-47 569,-47"/>
</g>
</g>
</svg>
