<?xml version="1.0" encoding="UTF-8" standalone="no"?>
<!DOCTYPE svg PUBLIC "-//W3C//DTD SVG 1.1//EN"
 "http://www.w3.org/Graphics/SVG/1.1/DTD/svg11.dtd">
<!-- Generated by graphviz version 2.38.0 (20140413.2041)
 -->
<!-- Title: g Pages: 1 -->
<svg width="1226pt" height="555pt"
 viewBox="0.00 0.00 1226.00 555.00" xmlns="http://www.w3.org/2000/svg" xmlns:xlink="http://www.w3.org/1999/xlink">
<g id="graph0" class="graph" transform="scale(1 1) rotate(0) translate(4 551)">
<title>g</title>
<polygon fill="white" stroke="none" points="-4,4 -4,-551 1222,-551 1222,4 -4,4"/>
<!-- IMDB -->
<g id="node1" class="node"><title>IMDB</title>
<ellipse fill="none" stroke="black" cx="355.5" cy="-529" rx="33.5952" ry="18"/>
<text text-anchor="middle" x="355.5" y="-525.3" font-family="Times New Roman,serif" font-size="14.00">IMDB</text>
</g>
<!-- IMDB_table -->
<g id="node2" class="node"><title>IMDB_table</title>
<polygon fill="none" stroke="black" points="326.5,-438.5 326.5,-474.5 510.5,-474.5 510.5,-438.5 326.5,-438.5"/>
<text text-anchor="middle" x="355.5" y="-452.8" font-family="Times New Roman,serif" font-size="14.00">Movies</text>
<polyline fill="none" stroke="black" points="384.5,-438.5 384.5,-474.5 "/>
<text text-anchor="middle" x="420" y="-452.8" font-family="Times New Roman,serif" font-size="14.00">TVshows</text>
<polyline fill="none" stroke="black" points="455.5,-438.5 455.5,-474.5 "/>
<text text-anchor="middle" x="483" y="-452.8" font-family="Times New Roman,serif" font-size="14.00">Actors</text>
</g>
<!-- IMDB&#45;&gt;IMDB_table -->
<g id="edge1" class="edge"><title>IMDB&#45;&gt;IMDB_table:f0</title>
<path fill="none" stroke="black" d="M355.5,-510.814C355.5,-503.278 355.5,-494.101 355.5,-485.058"/>
<polygon fill="black" stroke="black" points="359,-485 355.5,-475 352,-485 359,-485"/>
</g>
<!-- Movies_table -->
<g id="node3" class="node"><title>Movies_table</title>
<polygon fill="none" stroke="black" points="167.5,-365.5 167.5,-401.5 227.5,-401.5 227.5,-365.5 167.5,-365.5"/>
<text text-anchor="middle" x="197.5" y="-379.8" font-family="Times New Roman,serif" font-size="14.00">Movie+</text>
</g>
<!-- IMDB_table&#45;&gt;Movies_table -->
<g id="edge2" class="edge"><title>IMDB_table:f0&#45;&gt;Movies_table</title>
<path fill="none" stroke="black" d="M325.5,-456.5C285.413,-456.5 246.284,-429.342 222.058,-408.384"/>
<polygon fill="black" stroke="black" points="224.22,-405.622 214.433,-401.563 219.552,-410.839 224.22,-405.622"/>
</g>
<!-- TVshows_table -->
<g id="node9" class="node"><title>TVshows_table</title>
<polygon fill="none" stroke="black" points="383.5,-365.5 383.5,-401.5 457.5,-401.5 457.5,-365.5 383.5,-365.5"/>
<text text-anchor="middle" x="420.5" y="-379.8" font-family="Times New Roman,serif" font-size="14.00">TVshow+</text>
</g>
<!-- IMDB_table&#45;&gt;TVshows_table -->
<g id="edge8" class="edge"><title>IMDB_table:f1&#45;&gt;TVshows_table</title>
<path fill="none" stroke="black" d="M420.5,-438C420.5,-429.51 420.5,-420.262 420.5,-411.88"/>
<polygon fill="black" stroke="black" points="424,-411.848 420.5,-401.848 417,-411.848 424,-411.848"/>
</g>
<!-- Actors_table -->
<g id="node19" class="node"><title>Actors_table</title>
<polygon fill="none" stroke="black" points="685,-365.5 685,-401.5 742,-401.5 742,-365.5 685,-365.5"/>
<text text-anchor="middle" x="713.5" y="-379.8" font-family="Times New Roman,serif" font-size="14.00">Actor+</text>
</g>
<!-- IMDB_table&#45;&gt;Actors_table -->
<g id="edge18" class="edge"><title>IMDB_table:f2&#45;&gt;Actors_table</title>
<path fill="none" stroke="black" d="M511.5,-456.5C571.818,-456.5 636.693,-427.663 676.2,-406.489"/>
<polygon fill="black" stroke="black" points="678.106,-409.435 685.197,-401.563 674.745,-403.296 678.106,-409.435"/>
</g>
<!-- Movie_table -->
<g id="node4" class="node"><title>Movie_table</title>
<polygon fill="none" stroke="black" points="38.5,-292.5 38.5,-328.5 382.5,-328.5 382.5,-292.5 38.5,-292.5"/>
<text text-anchor="middle" x="59" y="-306.8" font-family="Times New Roman,serif" font-size="14.00">Title</text>
<polyline fill="none" stroke="black" points="79.5,-292.5 79.5,-328.5 "/>
<text text-anchor="middle" x="103" y="-306.8" font-family="Times New Roman,serif" font-size="14.00">Crew</text>
<polyline fill="none" stroke="black" points="126.5,-292.5 126.5,-328.5 "/>
<text text-anchor="middle" x="154.5" y="-306.8" font-family="Times New Roman,serif" font-size="14.00">Genres</text>
<polyline fill="none" stroke="black" points="182.5,-292.5 182.5,-328.5 "/>
<text text-anchor="middle" x="223" y="-306.8" font-family="Times New Roman,serif" font-size="14.00">Description</text>
<polyline fill="none" stroke="black" points="263.5,-292.5 263.5,-328.5 "/>
<text text-anchor="middle" x="290" y="-306.8" font-family="Times New Roman,serif" font-size="14.00">Rating</text>
<polyline fill="none" stroke="black" points="316.5,-292.5 316.5,-328.5 "/>
<text text-anchor="middle" x="349.5" y="-306.8" font-family="Times New Roman,serif" font-size="14.00">MovieID</text>
</g>
<!-- Movies_table&#45;&gt;Movie_table -->
<g id="edge3" class="edge"><title>Movies_table&#45;&gt;Movie_table:f0</title>
<path fill="none" stroke="black" d="M167.339,-383.454C129.652,-383.035 68.9532,-376.446 59.699,-339.157"/>
<polygon fill="black" stroke="black" points="63.1483,-338.521 58.5,-329 56.1966,-339.341 63.1483,-338.521"/>
</g>
<!-- Crew_table -->
<g id="node5" class="node"><title>Crew_table</title>
<polygon fill="none" stroke="black" points="0,-219.5 0,-255.5 107,-255.5 107,-219.5 0,-219.5"/>
<text text-anchor="middle" x="31" y="-233.8" font-family="Times New Roman,serif" font-size="14.00">Director</text>
<polyline fill="none" stroke="black" points="62,-219.5 62,-255.5 "/>
<text text-anchor="middle" x="84.5" y="-233.8" font-family="Times New Roman,serif" font-size="14.00">Stars</text>
</g>
<!-- Movie_table&#45;&gt;Crew_table -->
<g id="edge4" class="edge"><title>Movie_table:f1&#45;&gt;Crew_table:f0</title>
<path fill="none" stroke="black" d="M102.5,-292C102.5,-260.416 46.3862,-284.424 33.2346,-265.869"/>
<polygon fill="black" stroke="black" points="36.5433,-264.702 30.5,-256 29.7975,-266.572 36.5433,-264.702"/>
</g>
<!-- Genres_table -->
<g id="node7" class="node"><title>Genres_table</title>
<polygon fill="none" stroke="black" points="125,-219.5 125,-255.5 184,-255.5 184,-219.5 125,-219.5"/>
<text text-anchor="middle" x="154.5" y="-233.8" font-family="Times New Roman,serif" font-size="14.00">Genre+</text>
</g>
<!-- Movie_table&#45;&gt;Genres_table -->
<g id="edge6" class="edge"><title>Movie_table:f2&#45;&gt;Genres_table</title>
<path fill="none" stroke="black" d="M154.5,-292C154.5,-283.51 154.5,-274.262 154.5,-265.88"/>
<polygon fill="black" stroke="black" points="158,-265.848 154.5,-255.848 151,-265.848 158,-265.848"/>
</g>
<!-- Description_table -->
<g id="node8" class="node"><title>Description_table</title>
<polygon fill="none" stroke="black" points="202,-219.5 202,-255.5 305,-255.5 305,-219.5 202,-219.5"/>
<text text-anchor="middle" x="233.5" y="-233.8" font-family="Times New Roman,serif" font-size="14.00">Runtime</text>
<polyline fill="none" stroke="black" points="265,-219.5 265,-255.5 "/>
<text text-anchor="middle" x="285" y="-233.8" font-family="Times New Roman,serif" font-size="14.00">year</text>
</g>
<!-- Movie_table&#45;&gt;Description_table -->
<g id="edge7" class="edge"><title>Movie_table:f3&#45;&gt;Description_table:f0</title>
<path fill="none" stroke="black" d="M223.5,-292C223.5,-279.416 229.243,-274.767 232.024,-266.026"/>
<polygon fill="black" stroke="black" points="235.507,-266.403 233.5,-256 228.581,-265.384 235.507,-266.403"/>
</g>
<!-- Stars_table -->
<g id="node6" class="node"><title>Stars_table</title>
<polygon fill="none" stroke="black" points="57.5,-146.5 57.5,-182.5 111.5,-182.5 111.5,-146.5 57.5,-146.5"/>
<text text-anchor="middle" x="84.5" y="-160.8" font-family="Times New Roman,serif" font-size="14.00">Star+</text>
</g>
<!-- Crew_table&#45;&gt;Stars_table -->
<g id="edge5" class="edge"><title>Crew_table:f1&#45;&gt;Stars_table</title>
<path fill="none" stroke="black" d="M84.5,-219C84.5,-210.51 84.5,-201.262 84.5,-192.88"/>
<polygon fill="black" stroke="black" points="88.0001,-192.848 84.5,-182.848 81.0001,-192.848 88.0001,-192.848"/>
</g>
<!-- TVshow_table -->
<g id="node10" class="node"><title>TVshow_table</title>
<polygon fill="none" stroke="black" points="400.5,-292.5 400.5,-328.5 820.5,-328.5 820.5,-292.5 400.5,-292.5"/>
<text text-anchor="middle" x="421" y="-306.8" font-family="Times New Roman,serif" font-size="14.00">Title</text>
<polyline fill="none" stroke="black" points="441.5,-292.5 441.5,-328.5 "/>
<text text-anchor="middle" x="465" y="-306.8" font-family="Times New Roman,serif" font-size="14.00">Crew</text>
<polyline fill="none" stroke="black" points="488.5,-292.5 488.5,-328.5 "/>
<text text-anchor="middle" x="516.5" y="-306.8" font-family="Times New Roman,serif" font-size="14.00">Genres</text>
<polyline fill="none" stroke="black" points="544.5,-292.5 544.5,-328.5 "/>
<text text-anchor="middle" x="576" y="-306.8" font-family="Times New Roman,serif" font-size="14.00">Seasons</text>
<polyline fill="none" stroke="black" points="607.5,-292.5 607.5,-328.5 "/>
<text text-anchor="middle" x="648" y="-306.8" font-family="Times New Roman,serif" font-size="14.00">Description</text>
<polyline fill="none" stroke="black" points="688.5,-292.5 688.5,-328.5 "/>
<text text-anchor="middle" x="715" y="-306.8" font-family="Times New Roman,serif" font-size="14.00">Rating</text>
<polyline fill="none" stroke="black" points="741.5,-292.5 741.5,-328.5 "/>
<text text-anchor="middle" x="781" y="-306.8" font-family="Times New Roman,serif" font-size="14.00">TvShowID</text>
</g>
<!-- TVshows_table&#45;&gt;TVshow_table -->
<g id="edge9" class="edge"><title>TVshows_table&#45;&gt;TVshow_table:f0</title>
<path fill="none" stroke="black" d="M420.5,-365.152C420.5,-357.545 420.5,-348.282 420.5,-339.153"/>
<polygon fill="black" stroke="black" points="424,-339 420.5,-329 417,-339 424,-339"/>
</g>
<!-- Crew_table2 -->
<g id="node11" class="node"><title>Crew_table2</title>
<polygon fill="none" stroke="black" points="352,-219.5 352,-255.5 459,-255.5 459,-219.5 352,-219.5"/>
<text text-anchor="middle" x="383" y="-233.8" font-family="Times New Roman,serif" font-size="14.00">Director</text>
<polyline fill="none" stroke="black" points="414,-219.5 414,-255.5 "/>
<text text-anchor="middle" x="436.5" y="-233.8" font-family="Times New Roman,serif" font-size="14.00">Stars</text>
</g>
<!-- TVshow_table&#45;&gt;Crew_table2 -->
<g id="edge10" class="edge"><title>TVshow_table:f1&#45;&gt;Crew_table2:f0</title>
<path fill="none" stroke="black" d="M464.5,-292C464.5,-256.24 398.31,-287.805 384.866,-265.721"/>
<polygon fill="black" stroke="black" points="388.265,-264.889 382.5,-256 381.464,-266.544 388.265,-264.889"/>
</g>
<!-- Genres_table2 -->
<g id="node13" class="node"><title>Genres_table2</title>
<polygon fill="none" stroke="black" points="477,-219.5 477,-255.5 536,-255.5 536,-219.5 477,-219.5"/>
<text text-anchor="middle" x="506.5" y="-233.8" font-family="Times New Roman,serif" font-size="14.00">Genre+</text>
</g>
<!-- TVshow_table&#45;&gt;Genres_table2 -->
<g id="edge12" class="edge"><title>TVshow_table:f2&#45;&gt;Genres_table2</title>
<path fill="none" stroke="black" d="M516.5,-292C516.5,-283.363 515.225,-274.073 513.586,-265.698"/>
<polygon fill="black" stroke="black" points="516.952,-264.709 511.383,-255.696 510.116,-266.215 516.952,-264.709"/>
</g>
<!-- Seasons_table -->
<g id="node14" class="node"><title>Seasons_table</title>
<polygon fill="none" stroke="black" points="554.5,-219.5 554.5,-255.5 714.5,-255.5 714.5,-219.5 554.5,-219.5"/>
<text text-anchor="middle" x="587" y="-233.8" font-family="Times New Roman,serif" font-size="14.00">Season+</text>
<polyline fill="none" stroke="black" points="619.5,-219.5 619.5,-255.5 "/>
<text text-anchor="middle" x="667" y="-233.8" font-family="Times New Roman,serif" font-size="14.00">NoOfSeasons</text>
</g>
<!-- TVshow_table&#45;&gt;Seasons_table -->
<g id="edge13" class="edge"><title>TVshow_table:f3&#45;&gt;Seasons_table:f0</title>
<path fill="none" stroke="black" d="M575.5,-292C575.5,-279.322 581.817,-274.793 584.877,-266.062"/>
<polygon fill="black" stroke="black" points="588.363,-266.43 586.5,-256 581.452,-265.315 588.363,-266.43"/>
</g>
<!-- Description_table2 -->
<g id="node18" class="node"><title>Description_table2</title>
<polygon fill="none" stroke="black" points="733,-219.5 733,-255.5 836,-255.5 836,-219.5 733,-219.5"/>
<text text-anchor="middle" x="764.5" y="-233.8" font-family="Times New Roman,serif" font-size="14.00">Runtime</text>
<polyline fill="none" stroke="black" points="796,-219.5 796,-255.5 "/>
<text text-anchor="middle" x="816" y="-233.8" font-family="Times New Roman,serif" font-size="14.00">year</text>
</g>
<!-- TVshow_table&#45;&gt;Description_table2 -->
<g id="edge17" class="edge"><title>TVshow_table:f4&#45;&gt;Description_table2:f0</title>
<path fill="none" stroke="black" d="M648.5,-292C648.5,-255.026 697.875,-282.654 723.5,-256 726.119,-253.276 726.358,-249.557 726.431,-246.169"/>
<polygon fill="black" stroke="black" points="729.474,-247.899 731.5,-237.5 723.431,-244.366 729.474,-247.899"/>
</g>
<!-- Stars_table2 -->
<g id="node12" class="node"><title>Stars_table2</title>
<polygon fill="none" stroke="black" points="409.5,-146.5 409.5,-182.5 463.5,-182.5 463.5,-146.5 409.5,-146.5"/>
<text text-anchor="middle" x="436.5" y="-160.8" font-family="Times New Roman,serif" font-size="14.00">Star+</text>
</g>
<!-- Crew_table2&#45;&gt;Stars_table2 -->
<g id="edge11" class="edge"><title>Crew_table2:f1&#45;&gt;Stars_table2</title>
<path fill="none" stroke="black" d="M436.5,-219C436.5,-210.51 436.5,-201.262 436.5,-192.88"/>
<polygon fill="black" stroke="black" points="440,-192.848 436.5,-182.848 433,-192.848 440,-192.848"/>
</g>
<!-- Season_table -->
<g id="node15" class="node"><title>Season_table</title>
<polygon fill="none" stroke="black" points="553,-146.5 553,-182.5 818,-182.5 818,-146.5 553,-146.5"/>
<text text-anchor="middle" x="587" y="-160.8" font-family="Times New Roman,serif" font-size="14.00">Episodes</text>
<polyline fill="none" stroke="black" points="621,-146.5 621,-182.5 "/>
<text text-anchor="middle" x="671.5" y="-160.8" font-family="Times New Roman,serif" font-size="14.00">NoOfEpisodes</text>
<polyline fill="none" stroke="black" points="722,-146.5 722,-182.5 "/>
<text text-anchor="middle" x="748.5" y="-160.8" font-family="Times New Roman,serif" font-size="14.00">Rating</text>
<polyline fill="none" stroke="black" points="775,-146.5 775,-182.5 "/>
<text text-anchor="middle" x="796.5" y="-160.8" font-family="Times New Roman,serif" font-size="14.00">Year</text>
</g>
<!-- Seasons_table&#45;&gt;Season_table -->
<g id="edge14" class="edge"><title>Seasons_table:f0&#45;&gt;Season_table:f0</title>
<path fill="none" stroke="black" d="M586.5,-219C586.5,-207 586.5,-201.75 586.5,-193.125"/>
<polygon fill="black" stroke="black" points="590,-193 586.5,-183 583,-193 590,-193"/>
</g>
<!-- Episodes_table -->
<g id="node16" class="node"><title>Episodes_table</title>
<polygon fill="none" stroke="black" points="551,-73.5 551,-109.5 622,-109.5 622,-73.5 551,-73.5"/>
<text text-anchor="middle" x="586.5" y="-87.8" font-family="Times New Roman,serif" font-size="14.00">Episode+</text>
</g>
<!-- Season_table&#45;&gt;Episodes_table -->
<g id="edge15" class="edge"><title>Season_table:f0&#45;&gt;Episodes_table</title>
<path fill="none" stroke="black" d="M586.5,-146C586.5,-137.51 586.5,-128.262 586.5,-119.88"/>
<polygon fill="black" stroke="black" points="590,-119.848 586.5,-109.848 583,-119.848 590,-119.848"/>
</g>
<!-- Episode_table -->
<g id="node17" class="node"><title>Episode_table</title>
<polygon fill="none" stroke="black" points="566.5,-0.5 566.5,-36.5 660.5,-36.5 660.5,-0.5 566.5,-0.5"/>
<text text-anchor="middle" x="587" y="-14.8" font-family="Times New Roman,serif" font-size="14.00">Title</text>
<polyline fill="none" stroke="black" points="607.5,-0.5 607.5,-36.5 "/>
<text text-anchor="middle" x="634" y="-14.8" font-family="Times New Roman,serif" font-size="14.00">Rating</text>
</g>
<!-- Episodes_table&#45;&gt;Episode_table -->
<g id="edge16" class="edge"><title>Episodes_table&#45;&gt;Episode_table:f0</title>
<path fill="none" stroke="black" d="M586.5,-73.1521C586.5,-65.5451 586.5,-56.2817 586.5,-47.1533"/>
<polygon fill="black" stroke="black" points="590,-47 586.5,-37 583,-47 590,-47"/>
</g>
<!-- Actor_table -->
<g id="node20" class="node"><title>Actor_table</title>
<polygon fill="none" stroke="black" points="839,-292.5 839,-328.5 1218,-328.5 1218,-292.5 839,-292.5"/>
<text text-anchor="middle" x="863.5" y="-306.8" font-family="Times New Roman,serif" font-size="14.00">Name</text>
<polyline fill="none" stroke="black" points="888,-292.5 888,-328.5 "/>
<text text-anchor="middle" x="923" y="-306.8" font-family="Times New Roman,serif" font-size="14.00">BirthYear</text>
<polyline fill="none" stroke="black" points="958,-292.5 958,-328.5 "/>
<text text-anchor="middle" x="1018" y="-306.8" font-family="Times New Roman,serif" font-size="14.00">PrimaryProfession</text>
<polyline fill="none" stroke="black" points="1078,-292.5 1078,-328.5 "/>
<text text-anchor="middle" x="1116.5" y="-306.8" font-family="Times New Roman,serif" font-size="14.00">KnownFor</text>
<polyline fill="none" stroke="black" points="1155,-292.5 1155,-328.5 "/>
<text text-anchor="middle" x="1186.5" y="-306.8" font-family="Times New Roman,serif" font-size="14.00">ActorID</text>
</g>
<!-- Actors_table&#45;&gt;Actor_table -->
<g id="edge19" class="edge"><title>Actors_table&#45;&gt;Actor_table:f1</title>
<path fill="none" stroke="black" d="M742.122,-381.137C793.996,-377.956 899.991,-367.944 919.409,-338.705"/>
<polygon fill="black" stroke="black" points="922.8,-339.591 922.5,-329 916.13,-337.466 922.8,-339.591"/>
</g>
<!-- KnownFor_table -->
<g id="node21" class="node"><title>KnownFor_table</title>
<polygon fill="none" stroke="black" points="1088,-219.5 1088,-255.5 1217,-255.5 1217,-219.5 1088,-219.5"/>
<text text-anchor="middle" x="1117" y="-233.8" font-family="Times New Roman,serif" font-size="14.00">Movies</text>
<polyline fill="none" stroke="black" points="1146,-219.5 1146,-255.5 "/>
<text text-anchor="middle" x="1181.5" y="-233.8" font-family="Times New Roman,serif" font-size="14.00">TvShows</text>
</g>
<!-- Actor_table&#45;&gt;KnownFor_table -->
<g id="edge20" class="edge"><title>Actor_table:f3&#45;&gt;KnownFor_table:f0</title>
<path fill="none" stroke="black" d="M1116.5,-292C1116.5,-271.454 1094.85,-275.184 1087.5,-256 1086.44,-253.237 1084.95,-250.07 1083.86,-247.148"/>
<polygon fill="black" stroke="black" points="1087.23,-248.069 1086.5,-237.5 1080.48,-246.22 1087.23,-248.069"/>
</g>
</g>
</svg>
