<?xml version="1.0" encoding="UTF-8" standalone="no"?>
<!DOCTYPE svg PUBLIC "-//W3C//DTD SVG 1.1//EN"
 "http://www.w3.org/Graphics/SVG/1.1/DTD/svg11.dtd">
<!-- Generated by graphviz version 2.38.0 (20140413.2041)
 -->
<!-- Title: g Pages: 1 -->
<svg width="1393pt" height="482pt"
 viewBox="0.00 0.00 1392.50 482.00" xmlns="http://www.w3.org/2000/svg" xmlns:xlink="http://www.w3.org/1999/xlink">
<g id="graph0" class="graph" transform="scale(1 1) rotate(0) translate(4 478)">
<title>g</title>
<polygon fill="white" stroke="none" points="-4,4 -4,-478 1388.5,-478 1388.5,4 -4,4"/>
<!-- IMDB -->
<g id="node1" class="node"><title>IMDB</title>
<ellipse fill="none" stroke="black" cx="531.5" cy="-456" rx="33.5952" ry="18"/>
<text text-anchor="middle" x="531.5" y="-452.3" font-family="Times New Roman,serif" font-size="14.00">IMDB</text>
</g>
<!-- IMDB_table -->
<g id="node2" class="node"><title>IMDB_table</title>
<polygon fill="none" stroke="black" points="439.5,-365.5 439.5,-401.5 623.5,-401.5 623.5,-365.5 439.5,-365.5"/>
<text text-anchor="middle" x="468.5" y="-379.8" font-family="Times New Roman,serif" font-size="14.00">Movies</text>
<polyline fill="none" stroke="black" points="497.5,-365.5 497.5,-401.5 "/>
<text text-anchor="middle" x="533" y="-379.8" font-family="Times New Roman,serif" font-size="14.00">TVshows</text>
<polyline fill="none" stroke="black" points="568.5,-365.5 568.5,-401.5 "/>
<text text-anchor="middle" x="596" y="-379.8" font-family="Times New Roman,serif" font-size="14.00">Celebs</text>
</g>
<!-- IMDB&#45;&gt;IMDB_table -->
<g id="edge1" class="edge"><title>IMDB&#45;&gt;IMDB_table</title>
<path fill="none" stroke="black" d="M531.5,-437.934C531.5,-430.17 531.5,-420.784 531.5,-412.06"/>
<polygon fill="black" stroke="black" points="535,-411.899 531.5,-401.899 528,-411.899 535,-411.899"/>
</g>
<!-- Movies_table -->
<g id="node3" class="node"><title>Movies_table</title>
<polygon fill="none" stroke="black" points="360.5,-292.5 360.5,-328.5 420.5,-328.5 420.5,-292.5 360.5,-292.5"/>
<text text-anchor="middle" x="390.5" y="-306.8" font-family="Times New Roman,serif" font-size="14.00">Movie+</text>
</g>
<!-- IMDB_table&#45;&gt;Movies_table -->
<g id="edge2" class="edge"><title>IMDB_table:f0&#45;&gt;Movies_table</title>
<path fill="none" stroke="black" d="M438.5,-383.5C416.009,-383.5 403.408,-358.877 396.821,-338.43"/>
<polygon fill="black" stroke="black" points="400.111,-337.204 393.979,-328.563 393.384,-339.141 400.111,-337.204"/>
</g>
<!-- TVshows_table -->
<g id="node11" class="node"><title>TVshows_table</title>
<polygon fill="none" stroke="black" points="496.5,-292.5 496.5,-328.5 570.5,-328.5 570.5,-292.5 496.5,-292.5"/>
<text text-anchor="middle" x="533.5" y="-306.8" font-family="Times New Roman,serif" font-size="14.00">TVshow+</text>
</g>
<!-- IMDB_table&#45;&gt;TVshows_table -->
<g id="edge10" class="edge"><title>IMDB_table:f1&#45;&gt;TVshows_table</title>
<path fill="none" stroke="black" d="M533.5,-365C533.5,-356.51 533.5,-347.262 533.5,-338.88"/>
<polygon fill="black" stroke="black" points="537,-338.848 533.5,-328.848 530,-338.848 537,-338.848"/>
</g>
<!-- Actors_table -->
<g id="node18" class="node"><title>Actors_table</title>
<polygon fill="none" stroke="black" points="972,-219.5 972,-255.5 1029,-255.5 1029,-219.5 972,-219.5"/>
<text text-anchor="middle" x="1000.5" y="-233.8" font-family="Times New Roman,serif" font-size="14.00">Celeb+</text>
</g>
<!-- IMDB_table&#45;&gt;Actors_table -->
<g id="edge17" class="edge"><title>IMDB_table:f2&#45;&gt;Actors_table</title>
<path fill="none" stroke="black" d="M624.5,-383.5C758.81,-383.5 903.121,-301.962 966.908,-261.175"/>
<polygon fill="black" stroke="black" points="968.87,-264.074 975.364,-255.703 965.067,-258.197 968.87,-264.074"/>
</g>
<!-- Movie_table -->
<g id="node4" class="node"><title>Movie_table</title>
<polygon fill="none" stroke="black" points="181.5,-226.5 181.5,-247.5 212.5,-247.5 212.5,-226.5 181.5,-226.5"/>
<text text-anchor="start" x="184.5" y="-233.3" font-family="Times New Roman,serif" font-size="14.00">Title</text>
<polygon fill="none" stroke="black" points="212.5,-226.5 212.5,-247.5 249.5,-247.5 249.5,-226.5 212.5,-226.5"/>
<text text-anchor="start" x="215.5" y="-233.3" font-family="Times New Roman,serif" font-size="14.00">Crew</text>
<polygon fill="none" stroke="black" points="249.5,-226.5 249.5,-247.5 295.5,-247.5 295.5,-226.5 249.5,-226.5"/>
<text text-anchor="start" x="252.5" y="-233.3" font-family="Times New Roman,serif" font-size="14.00">Genres</text>
<polygon fill="none" stroke="black" points="295.5,-226.5 295.5,-247.5 338.5,-247.5 338.5,-226.5 295.5,-226.5"/>
<text text-anchor="start" x="298.5" y="-233.3" font-family="Times New Roman,serif" font-size="14.00">Rating</text>
<polygon fill="none" stroke="black" points="338.5,-226.5 338.5,-247.5 409.5,-247.5 409.5,-226.5 338.5,-226.5"/>
<text text-anchor="start" x="341.5" y="-233.3" font-family="Times New Roman,serif" font-size="14.00">Description</text>
<polygon fill="none" stroke="black" points="409.5,-226.5 409.5,-247.5 482.5,-247.5 482.5,-226.5 409.5,-226.5"/>
<text text-anchor="start" x="412.5" y="-233.3" font-family="Times New Roman,serif" font-size="14.00" fill="Maroon">att:MovieID</text>
</g>
<!-- Movies_table&#45;&gt;Movie_table -->
<g id="edge3" class="edge"><title>Movies_table&#45;&gt;Movie_table:f0</title>
<path fill="none" stroke="black" d="M376.218,-292.313C368.971,-283.592 360.036,-272.84 352.064,-263.246"/>
<polygon fill="black" stroke="black" points="354.734,-260.983 345.651,-255.529 349.35,-265.457 354.734,-260.983"/>
</g>
<!-- Crew_table -->
<g id="node5" class="node"><title>Crew_table</title>
<polygon fill="none" stroke="black" points="8.5,-153.5 8.5,-174.5 99.5,-174.5 99.5,-153.5 8.5,-153.5"/>
<text text-anchor="start" x="11.5" y="-160.3" font-family="Times New Roman,serif" font-size="14.00" fill="red">Director (idref)</text>
<polygon fill="none" stroke="black" points="99.5,-153.5 99.5,-174.5 131.5,-174.5 131.5,-153.5 99.5,-153.5"/>
<text text-anchor="start" x="102.5" y="-160.3" font-family="Times New Roman,serif" font-size="14.00">Cast</text>
</g>
<!-- Movie_table&#45;&gt;Crew_table -->
<g id="edge4" class="edge"><title>Movie_table:port2&#45;&gt;Crew_table:port1</title>
<path fill="none" stroke="black" d="M230.5,-225.5C230.5,-147.587 69.7048,-247.034 54.6303,-185.749"/>
<polygon fill="black" stroke="black" points="58.0752,-185.056 53.5,-175.5 51.1174,-185.823 58.0752,-185.056"/>
</g>
<!-- Genres_table -->
<g id="node7" class="node"><title>Genres_table</title>
<polygon fill="none" stroke="black" points="175,-146.5 175,-182.5 234,-182.5 234,-146.5 175,-146.5"/>
<text text-anchor="middle" x="204.5" y="-160.8" font-family="Times New Roman,serif" font-size="14.00">Genre+</text>
</g>
<!-- Movie_table&#45;&gt;Genres_table -->
<g id="edge6" class="edge"><title>Movie_table:port3&#45;&gt;Genres_table</title>
<path fill="none" stroke="grey" stroke-dasharray="5,2" d="M272.5,-225.5C272.5,-207.035 258.228,-192.896 242.761,-182.994"/>
<polygon fill="grey" stroke="grey" points="244.524,-179.971 234.128,-177.929 240.982,-186.008 244.524,-179.971"/>
</g>
<!-- MainGenre -->
<g id="node8" class="node"><title>MainGenre</title>
<polygon fill="none" stroke="black" points="252.5,-146.5 252.5,-182.5 330.5,-182.5 330.5,-146.5 252.5,-146.5"/>
<text text-anchor="middle" x="291.5" y="-160.8" font-family="Times New Roman,serif" font-size="14.00">MainGenre</text>
</g>
<!-- Movie_table&#45;&gt;MainGenre -->
<g id="edge7" class="edge"><title>Movie_table:port3&#45;&gt;MainGenre</title>
<path fill="none" stroke="grey" stroke-dasharray="5,2" d="M272.5,-225.5C272.5,-214.273 275.561,-202.393 279.225,-192.192"/>
<polygon fill="grey" stroke="grey" points="282.581,-193.224 283,-182.637 276.071,-190.652 282.581,-193.224"/>
</g>
<!-- Description_table -->
<g id="node9" class="node"><title>Description_table</title>
<polygon fill="none" stroke="black" points="348.5,-146.5 348.5,-182.5 454.5,-182.5 454.5,-146.5 348.5,-146.5"/>
<text text-anchor="middle" x="380" y="-160.8" font-family="Times New Roman,serif" font-size="14.00">Runtime</text>
<polyline fill="none" stroke="black" points="411.5,-146.5 411.5,-182.5 "/>
<text text-anchor="middle" x="433" y="-160.8" font-family="Times New Roman,serif" font-size="14.00">Year</text>
</g>
<!-- Movie_table&#45;&gt;Description_table -->
<g id="edge8" class="edge"><title>Movie_table:port5&#45;&gt;Description_table:f0</title>
<path fill="none" stroke="black" d="M374.5,-225.5C374.5,-210.344 377.675,-204.432 378.965,-193.032"/>
<polygon fill="black" stroke="black" points="382.462,-193.172 379.5,-183 375.472,-192.799 382.462,-193.172"/>
</g>
<!-- Cast_table -->
<g id="node6" class="node"><title>Cast_table</title>
<polygon fill="none" stroke="black" points="59,-73.5 59,-109.5 136,-109.5 136,-73.5 59,-73.5"/>
<text text-anchor="middle" x="97.5" y="-87.8" font-family="Times New Roman,serif" font-size="14.00" fill="red">CelebRef+</text>
</g>
<!-- Crew_table&#45;&gt;Cast_table -->
<g id="edge5" class="edge"><title>Crew_table:port2&#45;&gt;Cast_table</title>
<path fill="none" stroke="black" d="M115.5,-152.5C115.5,-141.326 112.6,-129.456 109.129,-119.248"/>
<polygon fill="black" stroke="black" points="112.333,-117.824 105.552,-109.683 105.776,-120.275 112.333,-117.824"/>
</g>
<!-- MainGenre_table -->
<g id="node10" class="node"><title>MainGenre_table</title>
<polygon fill="none" stroke="black" points="162.5,-80.5 162.5,-101.5 206.5,-101.5 206.5,-80.5 162.5,-80.5"/>
<text text-anchor="start" x="165.5" y="-87.3" font-family="Times New Roman,serif" font-size="14.00">Action</text>
<polygon fill="none" stroke="black" points="206.5,-80.5 206.5,-101.5 270.5,-101.5 270.5,-80.5 206.5,-80.5"/>
<text text-anchor="start" x="209.5" y="-87.3" font-family="Times New Roman,serif" font-size="14.00">Adventure</text>
<polygon fill="none" stroke="black" points="270.5,-80.5 270.5,-101.5 313.5,-101.5 313.5,-80.5 270.5,-80.5"/>
<text text-anchor="start" x="273.5" y="-87.3" font-family="Times New Roman,serif" font-size="14.00">Drama</text>
<polygon fill="none" stroke="black" points="313.5,-80.5 313.5,-101.5 368.5,-101.5 368.5,-80.5 313.5,-80.5"/>
<text text-anchor="start" x="316.5" y="-87.3" font-family="Times New Roman,serif" font-size="14.00">Comedy</text>
<polygon fill="none" stroke="black" points="368.5,-80.5 368.5,-101.5 428.5,-101.5 428.5,-80.5 368.5,-80.5"/>
<text text-anchor="start" x="371.5" y="-87.3" font-family="Times New Roman,serif" font-size="14.00">Romance</text>
</g>
<!-- MainGenre&#45;&gt;MainGenre_table -->
<g id="edge9" class="edge"><title>MainGenre&#45;&gt;MainGenre_table</title>
<path fill="none" stroke="black" d="M292.468,-146.313C292.92,-138.289 293.469,-128.547 293.975,-119.569"/>
<polygon fill="black" stroke="black" points="297.473,-119.71 294.541,-109.529 290.484,-119.316 297.473,-119.71"/>
</g>
<!-- TVshow_table -->
<g id="node12" class="node"><title>TVshow_table</title>
<polygon fill="none" stroke="black" points="516.5,-226.5 516.5,-247.5 551.5,-247.5 551.5,-226.5 516.5,-226.5"/>
<text text-anchor="start" x="519.5" y="-233.3" font-family="Times New Roman,serif" font-size="14.00">Title </text>
<polygon fill="none" stroke="black" points="551.5,-226.5 551.5,-247.5 591.5,-247.5 591.5,-226.5 551.5,-226.5"/>
<text text-anchor="start" x="554.5" y="-233.3" font-family="Times New Roman,serif" font-size="14.00">Crew </text>
<polygon fill="none" stroke="black" points="591.5,-226.5 591.5,-247.5 641.5,-247.5 641.5,-226.5 591.5,-226.5"/>
<text text-anchor="start" x="594.5" y="-233.3" font-family="Times New Roman,serif" font-size="14.00">Genres </text>
<polygon fill="none" stroke="black" points="641.5,-226.5 641.5,-247.5 698.5,-247.5 698.5,-226.5 641.5,-226.5"/>
<text text-anchor="start" x="644.5" y="-233.3" font-family="Times New Roman,serif" font-size="14.00">Seasons </text>
<polygon fill="none" stroke="black" points="698.5,-226.5 698.5,-247.5 773.5,-247.5 773.5,-226.5 698.5,-226.5"/>
<text text-anchor="start" x="701.5" y="-233.3" font-family="Times New Roman,serif" font-size="14.00">Description </text>
<polygon fill="none" stroke="black" points="773.5,-226.5 773.5,-247.5 819.5,-247.5 819.5,-226.5 773.5,-226.5"/>
<text text-anchor="start" x="776.5" y="-233.3" font-family="Times New Roman,serif" font-size="14.00">Rating </text>
<polygon fill="none" stroke="black" points="819.5,-226.5 819.5,-247.5 909.5,-247.5 909.5,-226.5 819.5,-226.5"/>
<text text-anchor="start" x="822.5" y="-233.3" font-family="Times New Roman,serif" font-size="14.00" fill="Maroon">att:TVshowID </text>
</g>
<!-- TVshows_table&#45;&gt;TVshow_table -->
<g id="edge11" class="edge"><title>TVshows_table&#45;&gt;TVshow_table:port1</title>
<path fill="none" stroke="black" d="M533.5,-292.409C533.5,-282.951 533.5,-270.726 533.5,-258.812"/>
<polygon fill="black" stroke="black" points="537,-258.5 533.5,-248.5 530,-258.5 537,-258.5"/>
</g>
<!-- Crew_table2 -->
<g id="node13" class="node"><title>Crew_table2</title>
<polygon fill="none" stroke="black" points="471.5,-80.5 471.5,-101.5 562.5,-101.5 562.5,-80.5 471.5,-80.5"/>
<text text-anchor="start" x="474.5" y="-87.3" font-family="Times New Roman,serif" font-size="14.00" fill="red">Director (idref)</text>
<polygon fill="none" stroke="black" points="562.5,-80.5 562.5,-101.5 591.5,-101.5 591.5,-80.5 562.5,-80.5"/>
<text text-anchor="start" x="565.5" y="-87.3" font-family="Times New Roman,serif" font-size="14.00">cast</text>
</g>
<!-- TVshow_table&#45;&gt;Crew_table2 -->
<g id="edge12" class="edge"><title>TVshow_table:port2&#45;&gt;Crew_table2:f0</title>
<path fill="none" stroke="black" d="M571.5,-225.5C571.5,-204.431 557.386,-202.912 550.5,-183 543.307,-162.199 538.369,-137.723 535.334,-119.473"/>
<polygon fill="black" stroke="black" points="538.78,-118.855 533.764,-109.522 531.865,-119.946 538.78,-118.855"/>
</g>
<!-- Genres_table2 -->
<g id="node15" class="node"><title>Genres_table2</title>
<polygon fill="none" stroke="black" points="560,-146.5 560,-182.5 619,-182.5 619,-146.5 560,-146.5"/>
<text text-anchor="middle" x="589.5" y="-160.8" font-family="Times New Roman,serif" font-size="14.00">Genre+</text>
</g>
<!-- TVshow_table&#45;&gt;Genres_table2 -->
<g id="edge14" class="edge"><title>TVshow_table:port3&#45;&gt;Genres_table2</title>
<path fill="none" stroke="black" d="M616.5,-225.5C616.5,-213.693 612.099,-201.64 606.85,-191.463"/>
<polygon fill="black" stroke="black" points="609.865,-189.685 601.894,-182.706 603.773,-193.133 609.865,-189.685"/>
</g>
<!-- Seasons_table -->
<g id="node16" class="node"><title>Seasons_table</title>
<polygon fill="none" stroke="black" points="637.5,-146.5 637.5,-182.5 797.5,-182.5 797.5,-146.5 637.5,-146.5"/>
<text text-anchor="middle" x="670" y="-160.8" font-family="Times New Roman,serif" font-size="14.00">Season+</text>
<polyline fill="none" stroke="black" points="702.5,-146.5 702.5,-182.5 "/>
<text text-anchor="middle" x="750" y="-160.8" font-family="Times New Roman,serif" font-size="14.00">NoOfSeasons</text>
</g>
<!-- TVshow_table&#45;&gt;Seasons_table -->
<g id="edge15" class="edge"><title>TVshow_table:port4&#45;&gt;Seasons_table:f0</title>
<path fill="none" stroke="black" d="M669.5,-225.5C669.5,-210.595 669.5,-204.511 669.5,-193.328"/>
<polygon fill="black" stroke="black" points="673,-193 669.5,-183 666,-193 673,-193"/>
</g>
<!-- Description_table2 -->
<g id="node17" class="node"><title>Description_table2</title>
<polygon fill="none" stroke="black" points="816,-146.5 816,-182.5 1009,-182.5 1009,-146.5 816,-146.5"/>
<text text-anchor="middle" x="847.5" y="-160.8" font-family="Times New Roman,serif" font-size="14.00">Runtime</text>
<polyline fill="none" stroke="black" points="879,-146.5 879,-182.5 "/>
<text text-anchor="middle" x="911.5" y="-160.8" font-family="Times New Roman,serif" font-size="14.00">StarYear</text>
<polyline fill="none" stroke="black" points="944,-146.5 944,-182.5 "/>
<text text-anchor="middle" x="976.5" y="-160.8" font-family="Times New Roman,serif" font-size="14.00">EndYear</text>
</g>
<!-- TVshow_table&#45;&gt;Description_table2 -->
<g id="edge16" class="edge"><title>TVshow_table:port5&#45;&gt;Description_table2</title>
<path fill="none" stroke="black" d="M736.5,-225.5C736.5,-207.794 768.817,-194.245 805.754,-184.542"/>
<polygon fill="black" stroke="black" points="806.901,-187.862 815.747,-182.032 805.196,-181.073 806.901,-187.862"/>
</g>
<!-- Cast_table2 -->
<g id="node14" class="node"><title>Cast_table2</title>
<polygon fill="none" stroke="black" points="539,-0.5 539,-36.5 616,-36.5 616,-0.5 539,-0.5"/>
<text text-anchor="middle" x="577.5" y="-14.8" font-family="Times New Roman,serif" font-size="14.00" fill="red">CelebRef+</text>
</g>
<!-- Crew_table2&#45;&gt;Cast_table2 -->
<g id="edge13" class="edge"><title>Crew_table2:port2&#45;&gt;Cast_table2</title>
<path fill="none" stroke="black" d="M577.5,-79.5C577.5,-68.7537 577.5,-56.9248 577.5,-46.631"/>
<polygon fill="black" stroke="black" points="581,-46.5692 577.5,-36.5692 574,-46.5692 581,-46.5692"/>
</g>
<!-- Actor_table -->
<g id="node19" class="node"><title>Actor_table</title>
<polygon fill="none" stroke="black" points="1016.5,-80.5 1016.5,-101.5 1059.5,-101.5 1059.5,-80.5 1016.5,-80.5"/>
<text text-anchor="start" x="1019.5" y="-87.3" font-family="Times New Roman,serif" font-size="14.00">Name </text>
<polygon fill="none" stroke="black" points="1059.5,-80.5 1059.5,-101.5 1123.5,-101.5 1123.5,-80.5 1059.5,-80.5"/>
<text text-anchor="start" x="1062.5" y="-87.3" font-family="Times New Roman,serif" font-size="14.00">BirthYear </text>
<polygon fill="none" stroke="black" points="1123.5,-80.5 1123.5,-101.5 1232.5,-101.5 1232.5,-80.5 1123.5,-80.5"/>
<text text-anchor="start" x="1126.5" y="-87.3" font-family="Times New Roman,serif" font-size="14.00">PrimayProfession </text>
<polygon fill="none" stroke="black" points="1232.5,-80.5 1232.5,-101.5 1303.5,-101.5 1303.5,-80.5 1232.5,-80.5"/>
<text text-anchor="start" x="1235.5" y="-87.3" font-family="Times New Roman,serif" font-size="14.00">KnownFor </text>
<polygon fill="none" stroke="black" points="1303.5,-80.5 1303.5,-101.5 1376.5,-101.5 1376.5,-80.5 1303.5,-80.5"/>
<text text-anchor="start" x="1306.5" y="-87.3" font-family="Times New Roman,serif" font-size="14.00" fill="Maroon">att:CelebID </text>
</g>
<!-- Actors_table&#45;&gt;Actor_table -->
<g id="edge18" class="edge"><title>Actors_table&#45;&gt;Actor_table:port1</title>
<path fill="none" stroke="black" d="M1008.53,-219.149C1018.56,-195.966 1034.72,-153.106 1037.18,-112.705"/>
<polygon fill="black" stroke="black" points="1040.69,-112.605 1037.5,-102.5 1033.69,-112.386 1040.69,-112.605"/>
</g>
<!-- KnownFor_table -->
<g id="node20" class="node"><title>KnownFor_table</title>
<polygon fill="none" stroke="black" points="1233.5,-0.5 1233.5,-36.5 1303.5,-36.5 1303.5,-0.5 1233.5,-0.5"/>
<text text-anchor="middle" x="1268.5" y="-14.8" font-family="Times New Roman,serif" font-size="14.00" fill="red">TitleRef+</text>
</g>
<!-- Actor_table&#45;&gt;KnownFor_table -->
<g id="edge19" class="edge"><title>Actor_table:port4&#45;&gt;KnownFor_table:f0</title>
<path fill="none" stroke="black" d="M1268.5,-79.5C1268.5,-68.8104 1268.5,-57.0672 1268.5,-46.763"/>
<polygon fill="black" stroke="black" points="1272,-46.6503 1268.5,-36.6503 1265,-46.6504 1272,-46.6503"/>
</g>
</g>
</svg>
