<?xml version="1.0" encoding="UTF-8" standalone="no"?>
<!DOCTYPE svg PUBLIC "-//W3C//DTD SVG 1.1//EN"
 "http://www.w3.org/Graphics/SVG/1.1/DTD/svg11.dtd">
<!-- Generated by graphviz version 2.38.0 (20140413.2041)
 -->
<!-- Title: g Pages: 1 -->
<svg width="1277pt" height="555pt"
 viewBox="0.00 0.00 1277.00 555.00" xmlns="http://www.w3.org/2000/svg" xmlns:xlink="http://www.w3.org/1999/xlink">
<g id="graph0" class="graph" transform="scale(1 1) rotate(0) translate(4 551)">
<title>g</title>
<polygon fill="white" stroke="none" points="-4,4 -4,-551 1273,-551 1273,4 -4,4"/>
<!-- IMDB -->
<g id="node1" class="node"><title>IMDB</title>
<ellipse fill="none" stroke="black" cx="371" cy="-529" rx="33.5952" ry="18"/>
<text text-anchor="middle" x="371" y="-525.3" font-family="Times New Roman,serif" font-size="14.00">IMDB</text>
</g>
<!-- IMDB_table -->
<g id="node2" class="node"><title>IMDB_table</title>
<polygon fill="none" stroke="black" points="342,-438.5 342,-474.5 526,-474.5 526,-438.5 342,-438.5"/>
<text text-anchor="middle" x="371" y="-452.8" font-family="Times New Roman,serif" font-size="14.00">Movies</text>
<polyline fill="none" stroke="black" points="400,-438.5 400,-474.5 "/>
<text text-anchor="middle" x="435.5" y="-452.8" font-family="Times New Roman,serif" font-size="14.00">TVshows</text>
<polyline fill="none" stroke="black" points="471,-438.5 471,-474.5 "/>
<text text-anchor="middle" x="498.5" y="-452.8" font-family="Times New Roman,serif" font-size="14.00">Celebs</text>
</g>
<!-- IMDB&#45;&gt;IMDB_table -->
<g id="edge1" class="edge"><title>IMDB&#45;&gt;IMDB_table:f0</title>
<path fill="none" stroke="black" d="M371,-510.814C371,-503.278 371,-494.101 371,-485.058"/>
<polygon fill="black" stroke="black" points="374.5,-485 371,-475 367.5,-485 374.5,-485"/>
</g>
<!-- Movies_table -->
<g id="node3" class="node"><title>Movies_table</title>
<polygon fill="none" stroke="black" points="174,-365.5 174,-401.5 234,-401.5 234,-365.5 174,-365.5"/>
<text text-anchor="middle" x="204" y="-379.8" font-family="Times New Roman,serif" font-size="14.00">Movie+</text>
</g>
<!-- IMDB_table&#45;&gt;Movies_table -->
<g id="edge2" class="edge"><title>IMDB_table:f0&#45;&gt;Movies_table</title>
<path fill="none" stroke="black" d="M341,-456.5C298.571,-456.5 256.358,-429.105 230.239,-408.111"/>
<polygon fill="black" stroke="black" points="232.276,-405.253 222.345,-401.563 227.807,-410.641 232.276,-405.253"/>
</g>
<!-- TVshows_table -->
<g id="node9" class="node"><title>TVshows_table</title>
<polygon fill="none" stroke="black" points="399,-365.5 399,-401.5 473,-401.5 473,-365.5 399,-365.5"/>
<text text-anchor="middle" x="436" y="-379.8" font-family="Times New Roman,serif" font-size="14.00">TVshow+</text>
</g>
<!-- IMDB_table&#45;&gt;TVshows_table -->
<g id="edge8" class="edge"><title>IMDB_table:f1&#45;&gt;TVshows_table</title>
<path fill="none" stroke="black" d="M436,-438C436,-429.51 436,-420.262 436,-411.88"/>
<polygon fill="black" stroke="black" points="439.5,-411.848 436,-401.848 432.5,-411.848 439.5,-411.848"/>
</g>
<!-- Actors_table -->
<g id="node19" class="node"><title>Actors_table</title>
<polygon fill="none" stroke="black" points="709.5,-365.5 709.5,-401.5 766.5,-401.5 766.5,-365.5 709.5,-365.5"/>
<text text-anchor="middle" x="738" y="-379.8" font-family="Times New Roman,serif" font-size="14.00">Celeb+</text>
</g>
<!-- IMDB_table&#45;&gt;Actors_table -->
<g id="edge18" class="edge"><title>IMDB_table:f2&#45;&gt;Actors_table</title>
<path fill="none" stroke="black" d="M527,-456.5C590.513,-456.5 659.294,-426.919 700.496,-405.678"/>
<polygon fill="black" stroke="black" points="702.136,-408.771 709.357,-401.018 698.878,-402.575 702.136,-408.771"/>
</g>
<!-- Movie_table -->
<g id="node4" class="node"><title>Movie_table</title>
<polygon fill="none" stroke="black" points="36.5,-292.5 36.5,-328.5 397.5,-328.5 397.5,-292.5 36.5,-292.5"/>
<text text-anchor="middle" x="57" y="-306.8" font-family="Times New Roman,serif" font-size="14.00">Title</text>
<polyline fill="none" stroke="black" points="77.5,-292.5 77.5,-328.5 "/>
<text text-anchor="middle" x="101" y="-306.8" font-family="Times New Roman,serif" font-size="14.00">Crew</text>
<polyline fill="none" stroke="black" points="124.5,-292.5 124.5,-328.5 "/>
<text text-anchor="middle" x="152.5" y="-306.8" font-family="Times New Roman,serif" font-size="14.00">Genres</text>
<polyline fill="none" stroke="black" points="180.5,-292.5 180.5,-328.5 "/>
<text text-anchor="middle" x="221" y="-306.8" font-family="Times New Roman,serif" font-size="14.00">Description</text>
<polyline fill="none" stroke="black" points="261.5,-292.5 261.5,-328.5 "/>
<text text-anchor="middle" x="288" y="-306.8" font-family="Times New Roman,serif" font-size="14.00">Rating</text>
<polyline fill="none" stroke="black" points="314.5,-292.5 314.5,-328.5 "/>
<text text-anchor="middle" x="356" y="-306.8" font-family="Times New Roman,serif" font-size="14.00">att:MovieID</text>
</g>
<!-- Movies_table&#45;&gt;Movie_table -->
<g id="edge3" class="edge"><title>Movies_table&#45;&gt;Movie_table:f0</title>
<path fill="none" stroke="black" d="M173.898,-377.806C136.603,-371.242 76.0825,-357.894 60.6647,-338.391"/>
<polygon fill="black" stroke="black" points="63.8958,-337.044 57,-329 57.3747,-339.588 63.8958,-337.044"/>
</g>
<!-- Crew_table -->
<g id="node5" class="node"><title>Crew_table</title>
<polygon fill="none" stroke="black" points="0,-219.5 0,-255.5 104,-255.5 104,-219.5 0,-219.5"/>
<text text-anchor="middle" x="31" y="-233.8" font-family="Times New Roman,serif" font-size="14.00">Director</text>
<polyline fill="none" stroke="black" points="62,-219.5 62,-255.5 "/>
<text text-anchor="middle" x="83" y="-233.8" font-family="Times New Roman,serif" font-size="14.00">Cast</text>
</g>
<!-- Movie_table&#45;&gt;Crew_table -->
<g id="edge4" class="edge"><title>Movie_table:f1&#45;&gt;Crew_table:f0</title>
<path fill="none" stroke="black" d="M101,-292C101,-261.115 46.4449,-283.97 33.6586,-265.68"/>
<polygon fill="black" stroke="black" points="37.0234,-264.716 31,-256 30.2734,-266.57 37.0234,-264.716"/>
</g>
<!-- Genres_table -->
<g id="node7" class="node"><title>Genres_table</title>
<polygon fill="none" stroke="black" points="122.5,-219.5 122.5,-255.5 181.5,-255.5 181.5,-219.5 122.5,-219.5"/>
<text text-anchor="middle" x="152" y="-233.8" font-family="Times New Roman,serif" font-size="14.00">Genre+</text>
</g>
<!-- Movie_table&#45;&gt;Genres_table -->
<g id="edge6" class="edge"><title>Movie_table:f2&#45;&gt;Genres_table</title>
<path fill="none" stroke="black" d="M152,-292C152,-283.51 152,-274.262 152,-265.88"/>
<polygon fill="black" stroke="black" points="155.5,-265.848 152,-255.848 148.5,-265.848 155.5,-265.848"/>
</g>
<!-- Description_table -->
<g id="node8" class="node"><title>Description_table</title>
<polygon fill="none" stroke="black" points="200,-219.5 200,-255.5 306,-255.5 306,-219.5 200,-219.5"/>
<text text-anchor="middle" x="231.5" y="-233.8" font-family="Times New Roman,serif" font-size="14.00">Runtime</text>
<polyline fill="none" stroke="black" points="263,-219.5 263,-255.5 "/>
<text text-anchor="middle" x="284.5" y="-233.8" font-family="Times New Roman,serif" font-size="14.00">Year</text>
</g>
<!-- Movie_table&#45;&gt;Description_table -->
<g id="edge7" class="edge"><title>Movie_table:f3&#45;&gt;Description_table:f0</title>
<path fill="none" stroke="black" d="M221,-292C221,-279.416 226.743,-274.767 229.524,-266.026"/>
<polygon fill="black" stroke="black" points="233.007,-266.403 231,-256 226.081,-265.384 233.007,-266.403"/>
</g>
<!-- Cast_table -->
<g id="node6" class="node"><title>Cast_table</title>
<polygon fill="none" stroke="black" points="54.5,-146.5 54.5,-182.5 111.5,-182.5 111.5,-146.5 54.5,-146.5"/>
<text text-anchor="middle" x="83" y="-160.8" font-family="Times New Roman,serif" font-size="14.00">Celeb+</text>
</g>
<!-- Crew_table&#45;&gt;Cast_table -->
<g id="edge5" class="edge"><title>Crew_table:f1&#45;&gt;Cast_table</title>
<path fill="none" stroke="black" d="M83,-219C83,-210.51 83,-201.262 83,-192.88"/>
<polygon fill="black" stroke="black" points="86.5001,-192.848 83,-182.848 79.5001,-192.848 86.5001,-192.848"/>
</g>
<!-- TVshow_table -->
<g id="node10" class="node"><title>TVshow_table</title>
<polygon fill="none" stroke="black" points="415.5,-292.5 415.5,-328.5 854.5,-328.5 854.5,-292.5 415.5,-292.5"/>
<text text-anchor="middle" x="436" y="-306.8" font-family="Times New Roman,serif" font-size="14.00">Title</text>
<polyline fill="none" stroke="black" points="456.5,-292.5 456.5,-328.5 "/>
<text text-anchor="middle" x="480" y="-306.8" font-family="Times New Roman,serif" font-size="14.00">Crew</text>
<polyline fill="none" stroke="black" points="503.5,-292.5 503.5,-328.5 "/>
<text text-anchor="middle" x="531.5" y="-306.8" font-family="Times New Roman,serif" font-size="14.00">Genres</text>
<polyline fill="none" stroke="black" points="559.5,-292.5 559.5,-328.5 "/>
<text text-anchor="middle" x="591" y="-306.8" font-family="Times New Roman,serif" font-size="14.00">Seasons</text>
<polyline fill="none" stroke="black" points="622.5,-292.5 622.5,-328.5 "/>
<text text-anchor="middle" x="663" y="-306.8" font-family="Times New Roman,serif" font-size="14.00">Description</text>
<polyline fill="none" stroke="black" points="703.5,-292.5 703.5,-328.5 "/>
<text text-anchor="middle" x="730" y="-306.8" font-family="Times New Roman,serif" font-size="14.00">Rating</text>
<polyline fill="none" stroke="black" points="756.5,-292.5 756.5,-328.5 "/>
<text text-anchor="middle" x="805.5" y="-306.8" font-family="Times New Roman,serif" font-size="14.00">att:TVShowID</text>
</g>
<!-- TVshows_table&#45;&gt;TVshow_table -->
<g id="edge9" class="edge"><title>TVshows_table&#45;&gt;TVshow_table:f0</title>
<path fill="none" stroke="black" d="M436,-365.152C436,-357.545 436,-348.282 436,-339.153"/>
<polygon fill="black" stroke="black" points="439.5,-339 436,-329 432.5,-339 439.5,-339"/>
</g>
<!-- Crew_table2 -->
<g id="node11" class="node"><title>Crew_table2</title>
<polygon fill="none" stroke="black" points="369,-219.5 369,-255.5 473,-255.5 473,-219.5 369,-219.5"/>
<text text-anchor="middle" x="400" y="-233.8" font-family="Times New Roman,serif" font-size="14.00">Director</text>
<polyline fill="none" stroke="black" points="431,-219.5 431,-255.5 "/>
<text text-anchor="middle" x="452" y="-233.8" font-family="Times New Roman,serif" font-size="14.00">Cast</text>
</g>
<!-- TVshow_table&#45;&gt;Crew_table2 -->
<g id="edge10" class="edge"><title>TVshow_table:f1&#45;&gt;Crew_table2:f0</title>
<path fill="none" stroke="black" d="M480,-292C480,-257.122 415.985,-287.035 402.482,-265.825"/>
<polygon fill="black" stroke="black" points="405.843,-264.838 400,-256 399.056,-266.553 405.843,-264.838"/>
</g>
<!-- Genres_table2 -->
<g id="node13" class="node"><title>Genres_table2</title>
<polygon fill="none" stroke="black" points="491.5,-219.5 491.5,-255.5 550.5,-255.5 550.5,-219.5 491.5,-219.5"/>
<text text-anchor="middle" x="521" y="-233.8" font-family="Times New Roman,serif" font-size="14.00">Genre+</text>
</g>
<!-- TVshow_table&#45;&gt;Genres_table2 -->
<g id="edge12" class="edge"><title>TVshow_table:f2&#45;&gt;Genres_table2</title>
<path fill="none" stroke="black" d="M531,-292C531,-283.363 529.725,-274.073 528.086,-265.698"/>
<polygon fill="black" stroke="black" points="531.452,-264.709 525.883,-255.696 524.616,-266.215 531.452,-264.709"/>
</g>
<!-- Seasons_table -->
<g id="node14" class="node"><title>Seasons_table</title>
<polygon fill="none" stroke="black" points="569,-219.5 569,-255.5 729,-255.5 729,-219.5 569,-219.5"/>
<text text-anchor="middle" x="601.5" y="-233.8" font-family="Times New Roman,serif" font-size="14.00">Season+</text>
<polyline fill="none" stroke="black" points="634,-219.5 634,-255.5 "/>
<text text-anchor="middle" x="681.5" y="-233.8" font-family="Times New Roman,serif" font-size="14.00">NoOfSeasons</text>
</g>
<!-- TVshow_table&#45;&gt;Seasons_table -->
<g id="edge13" class="edge"><title>TVshow_table:f3&#45;&gt;Seasons_table:f0</title>
<path fill="none" stroke="black" d="M591,-292C591,-279.416 596.743,-274.767 599.524,-266.026"/>
<polygon fill="black" stroke="black" points="603.007,-266.403 601,-256 596.081,-265.384 603.007,-266.403"/>
</g>
<!-- Description_table2 -->
<g id="node18" class="node"><title>Description_table2</title>
<polygon fill="none" stroke="black" points="747.5,-219.5 747.5,-255.5 940.5,-255.5 940.5,-219.5 747.5,-219.5"/>
<text text-anchor="middle" x="779" y="-233.8" font-family="Times New Roman,serif" font-size="14.00">Runtime</text>
<polyline fill="none" stroke="black" points="810.5,-219.5 810.5,-255.5 "/>
<text text-anchor="middle" x="843" y="-233.8" font-family="Times New Roman,serif" font-size="14.00">StarYear</text>
<polyline fill="none" stroke="black" points="875.5,-219.5 875.5,-255.5 "/>
<text text-anchor="middle" x="908" y="-233.8" font-family="Times New Roman,serif" font-size="14.00">EndYear</text>
</g>
<!-- TVshow_table&#45;&gt;Description_table2 -->
<g id="edge17" class="edge"><title>TVshow_table:f4&#45;&gt;Description_table2:f0</title>
<path fill="none" stroke="black" d="M663,-292C663,-255.026 712.375,-282.654 738,-256 740.619,-253.276 740.858,-249.557 740.931,-246.169"/>
<polygon fill="black" stroke="black" points="743.974,-247.899 746,-237.5 737.931,-244.366 743.974,-247.899"/>
</g>
<!-- Cast_table2 -->
<g id="node12" class="node"><title>Cast_table2</title>
<polygon fill="none" stroke="black" points="423.5,-146.5 423.5,-182.5 480.5,-182.5 480.5,-146.5 423.5,-146.5"/>
<text text-anchor="middle" x="452" y="-160.8" font-family="Times New Roman,serif" font-size="14.00">Celeb+</text>
</g>
<!-- Crew_table2&#45;&gt;Cast_table2 -->
<g id="edge11" class="edge"><title>Crew_table2:f1&#45;&gt;Cast_table2</title>
<path fill="none" stroke="black" d="M452,-219C452,-210.51 452,-201.262 452,-192.88"/>
<polygon fill="black" stroke="black" points="455.5,-192.848 452,-182.848 448.5,-192.848 455.5,-192.848"/>
</g>
<!-- Season_table -->
<g id="node15" class="node"><title>Season_table</title>
<polygon fill="none" stroke="black" points="567.5,-146.5 567.5,-182.5 832.5,-182.5 832.5,-146.5 567.5,-146.5"/>
<text text-anchor="middle" x="601.5" y="-160.8" font-family="Times New Roman,serif" font-size="14.00">Episodes</text>
<polyline fill="none" stroke="black" points="635.5,-146.5 635.5,-182.5 "/>
<text text-anchor="middle" x="686" y="-160.8" font-family="Times New Roman,serif" font-size="14.00">NoOfEpisodes</text>
<polyline fill="none" stroke="black" points="736.5,-146.5 736.5,-182.5 "/>
<text text-anchor="middle" x="763" y="-160.8" font-family="Times New Roman,serif" font-size="14.00">Rating</text>
<polyline fill="none" stroke="black" points="789.5,-146.5 789.5,-182.5 "/>
<text text-anchor="middle" x="811" y="-160.8" font-family="Times New Roman,serif" font-size="14.00">Year</text>
</g>
<!-- Seasons_table&#45;&gt;Season_table -->
<g id="edge14" class="edge"><title>Seasons_table:f0&#45;&gt;Season_table:f0</title>
<path fill="none" stroke="black" d="M601,-219C601,-207 601,-201.75 601,-193.125"/>
<polygon fill="black" stroke="black" points="604.5,-193 601,-183 597.5,-193 604.5,-193"/>
</g>
<!-- Episodes_table -->
<g id="node16" class="node"><title>Episodes_table</title>
<polygon fill="none" stroke="black" points="565.5,-73.5 565.5,-109.5 636.5,-109.5 636.5,-73.5 565.5,-73.5"/>
<text text-anchor="middle" x="601" y="-87.8" font-family="Times New Roman,serif" font-size="14.00">Episode+</text>
</g>
<!-- Season_table&#45;&gt;Episodes_table -->
<g id="edge15" class="edge"><title>Season_table:f0&#45;&gt;Episodes_table</title>
<path fill="none" stroke="black" d="M601,-146C601,-137.51 601,-128.262 601,-119.88"/>
<polygon fill="black" stroke="black" points="604.5,-119.848 601,-109.848 597.5,-119.848 604.5,-119.848"/>
</g>
<!-- Episode_table -->
<g id="node17" class="node"><title>Episode_table</title>
<polygon fill="none" stroke="black" points="581,-0.5 581,-36.5 675,-36.5 675,-0.5 581,-0.5"/>
<text text-anchor="middle" x="601.5" y="-14.8" font-family="Times New Roman,serif" font-size="14.00">Title</text>
<polyline fill="none" stroke="black" points="622,-0.5 622,-36.5 "/>
<text text-anchor="middle" x="648.5" y="-14.8" font-family="Times New Roman,serif" font-size="14.00">Rating</text>
</g>
<!-- Episodes_table&#45;&gt;Episode_table -->
<g id="edge16" class="edge"><title>Episodes_table&#45;&gt;Episode_table:f0</title>
<path fill="none" stroke="black" d="M601,-73.1521C601,-65.5451 601,-56.2817 601,-47.1533"/>
<polygon fill="black" stroke="black" points="604.5,-47 601,-37 597.5,-47 604.5,-47"/>
</g>
<!-- Actor_table -->
<g id="node20" class="node"><title>Actor_table</title>
<polygon fill="none" stroke="black" points="873,-292.5 873,-328.5 1269,-328.5 1269,-292.5 873,-292.5"/>
<text text-anchor="middle" x="897.5" y="-306.8" font-family="Times New Roman,serif" font-size="14.00">Name</text>
<polyline fill="none" stroke="black" points="922,-292.5 922,-328.5 "/>
<text text-anchor="middle" x="957" y="-306.8" font-family="Times New Roman,serif" font-size="14.00">BirthYear</text>
<polyline fill="none" stroke="black" points="992,-292.5 992,-328.5 "/>
<text text-anchor="middle" x="1052" y="-306.8" font-family="Times New Roman,serif" font-size="14.00">PrimaryProfession</text>
<polyline fill="none" stroke="black" points="1112,-292.5 1112,-328.5 "/>
<text text-anchor="middle" x="1150.5" y="-306.8" font-family="Times New Roman,serif" font-size="14.00">KnownFor</text>
<polyline fill="none" stroke="black" points="1189,-292.5 1189,-328.5 "/>
<text text-anchor="middle" x="1229" y="-306.8" font-family="Times New Roman,serif" font-size="14.00">att:CelebID</text>
</g>
<!-- Actors_table&#45;&gt;Actor_table -->
<g id="edge19" class="edge"><title>Actors_table&#45;&gt;Actor_table:f1</title>
<path fill="none" stroke="black" d="M766.63,-381.473C820.66,-378.823 934.038,-369.627 953.975,-338.782"/>
<polygon fill="black" stroke="black" points="957.389,-339.588 957,-329 950.701,-337.519 957.389,-339.588"/>
</g>
<!-- KnownFor_table -->
<g id="node21" class="node"><title>KnownFor_table</title>
<polygon fill="none" stroke="black" points="1122.5,-219.5 1122.5,-255.5 1251.5,-255.5 1251.5,-219.5 1122.5,-219.5"/>
<text text-anchor="middle" x="1151.5" y="-233.8" font-family="Times New Roman,serif" font-size="14.00">Movies</text>
<polyline fill="none" stroke="black" points="1180.5,-219.5 1180.5,-255.5 "/>
<text text-anchor="middle" x="1216" y="-233.8" font-family="Times New Roman,serif" font-size="14.00">TvShows</text>
</g>
<!-- Actor_table&#45;&gt;KnownFor_table -->
<g id="edge20" class="edge"><title>Actor_table:f3&#45;&gt;KnownFor_table:f0</title>
<path fill="none" stroke="black" d="M1151,-292C1151,-271.454 1129.35,-275.184 1122,-256 1120.94,-253.237 1119.45,-250.07 1118.36,-247.148"/>
<polygon fill="black" stroke="black" points="1121.73,-248.069 1121,-237.5 1114.98,-246.22 1121.73,-248.069"/>
</g>
</g>
</svg>
