<?xml version="1.0" encoding="UTF-8" standalone="no"?>
<!DOCTYPE svg PUBLIC "-//W3C//DTD SVG 1.1//EN"
 "http://www.w3.org/Graphics/SVG/1.1/DTD/svg11.dtd">
<!-- Generated by graphviz version 2.38.0 (20140413.2041)
 -->
<!-- Title: g Pages: 1 -->
<svg width="1316pt" height="555pt"
 viewBox="0.00 0.00 1315.50 555.00" xmlns="http://www.w3.org/2000/svg" xmlns:xlink="http://www.w3.org/1999/xlink">
<g id="graph0" class="graph" transform="scale(1 1) rotate(0) translate(4 551)">
<title>g</title>
<polygon fill="white" stroke="none" points="-4,4 -4,-551 1311.5,-551 1311.5,4 -4,4"/>
<!-- IMDB -->
<g id="node1" class="node"><title>IMDB</title>
<ellipse fill="none" stroke="black" cx="409.5" cy="-529" rx="33.5952" ry="18"/>
<text text-anchor="middle" x="409.5" y="-525.3" font-family="Times New Roman,serif" font-size="14.00">IMDB</text>
</g>
<!-- IMDB_table -->
<g id="node2" class="node"><title>IMDB_table</title>
<polygon fill="none" stroke="black" points="380.5,-438.5 380.5,-474.5 564.5,-474.5 564.5,-438.5 380.5,-438.5"/>
<text text-anchor="middle" x="409.5" y="-452.8" font-family="Times New Roman,serif" font-size="14.00">Movies</text>
<polyline fill="none" stroke="black" points="438.5,-438.5 438.5,-474.5 "/>
<text text-anchor="middle" x="474" y="-452.8" font-family="Times New Roman,serif" font-size="14.00">TVshows</text>
<polyline fill="none" stroke="black" points="509.5,-438.5 509.5,-474.5 "/>
<text text-anchor="middle" x="537" y="-452.8" font-family="Times New Roman,serif" font-size="14.00">Celebs</text>
</g>
<!-- IMDB&#45;&gt;IMDB_table -->
<g id="edge1" class="edge"><title>IMDB&#45;&gt;IMDB_table:f0</title>
<path fill="none" stroke="black" d="M409.5,-510.814C409.5,-503.278 409.5,-494.101 409.5,-485.058"/>
<polygon fill="black" stroke="black" points="413,-485 409.5,-475 406,-485 413,-485"/>
</g>
<!-- Movies_table -->
<g id="node3" class="node"><title>Movies_table</title>
<polygon fill="none" stroke="black" points="212.5,-365.5 212.5,-401.5 272.5,-401.5 272.5,-365.5 212.5,-365.5"/>
<text text-anchor="middle" x="242.5" y="-379.8" font-family="Times New Roman,serif" font-size="14.00">Movie+</text>
</g>
<!-- IMDB_table&#45;&gt;Movies_table -->
<g id="edge2" class="edge"><title>IMDB_table:f0&#45;&gt;Movies_table</title>
<path fill="none" stroke="black" d="M379.5,-456.5C337.071,-456.5 294.858,-429.105 268.739,-408.111"/>
<polygon fill="black" stroke="black" points="270.776,-405.253 260.845,-401.563 266.307,-410.641 270.776,-405.253"/>
</g>
<!-- TVshows_table -->
<g id="node9" class="node"><title>TVshows_table</title>
<polygon fill="none" stroke="black" points="437.5,-365.5 437.5,-401.5 511.5,-401.5 511.5,-365.5 437.5,-365.5"/>
<text text-anchor="middle" x="474.5" y="-379.8" font-family="Times New Roman,serif" font-size="14.00">TVshow+</text>
</g>
<!-- IMDB_table&#45;&gt;TVshows_table -->
<g id="edge8" class="edge"><title>IMDB_table:f1&#45;&gt;TVshows_table</title>
<path fill="none" stroke="black" d="M474.5,-438C474.5,-429.51 474.5,-420.262 474.5,-411.88"/>
<polygon fill="black" stroke="black" points="478,-411.848 474.5,-401.848 471,-411.848 478,-411.848"/>
</g>
<!-- Actors_table -->
<g id="node19" class="node"><title>Actors_table</title>
<polygon fill="none" stroke="black" points="748,-365.5 748,-401.5 805,-401.5 805,-365.5 748,-365.5"/>
<text text-anchor="middle" x="776.5" y="-379.8" font-family="Times New Roman,serif" font-size="14.00">Celeb+</text>
</g>
<!-- IMDB_table&#45;&gt;Actors_table -->
<g id="edge18" class="edge"><title>IMDB_table:f2&#45;&gt;Actors_table</title>
<path fill="none" stroke="black" d="M565.5,-456.5C629.013,-456.5 697.794,-426.919 738.996,-405.678"/>
<polygon fill="black" stroke="black" points="740.636,-408.771 747.857,-401.018 737.378,-402.575 740.636,-408.771"/>
</g>
<!-- Movie_table -->
<g id="node4" class="node"><title>Movie_table</title>
<polygon fill="none" stroke="black" points="75,-292.5 75,-328.5 436,-328.5 436,-292.5 75,-292.5"/>
<text text-anchor="middle" x="95.5" y="-306.8" font-family="Times New Roman,serif" font-size="14.00">Title</text>
<polyline fill="none" stroke="black" points="116,-292.5 116,-328.5 "/>
<text text-anchor="middle" x="139.5" y="-306.8" font-family="Times New Roman,serif" font-size="14.00">Crew</text>
<polyline fill="none" stroke="black" points="163,-292.5 163,-328.5 "/>
<text text-anchor="middle" x="191" y="-306.8" font-family="Times New Roman,serif" font-size="14.00">Genres</text>
<polyline fill="none" stroke="black" points="219,-292.5 219,-328.5 "/>
<text text-anchor="middle" x="259.5" y="-306.8" font-family="Times New Roman,serif" font-size="14.00">Description</text>
<polyline fill="none" stroke="black" points="300,-292.5 300,-328.5 "/>
<text text-anchor="middle" x="326.5" y="-306.8" font-family="Times New Roman,serif" font-size="14.00">Rating</text>
<polyline fill="none" stroke="black" points="353,-292.5 353,-328.5 "/>
<text text-anchor="middle" x="394.5" y="-306.8" font-family="Times New Roman,serif" font-size="14.00">att:MovieID</text>
</g>
<!-- Movies_table&#45;&gt;Movie_table -->
<g id="edge3" class="edge"><title>Movies_table&#45;&gt;Movie_table:f0</title>
<path fill="none" stroke="black" d="M212.398,-377.806C175.103,-371.242 114.582,-357.894 99.1647,-338.391"/>
<polygon fill="black" stroke="black" points="102.396,-337.044 95.5,-329 95.8747,-339.588 102.396,-337.044"/>
</g>
<!-- Crew_table -->
<g id="node5" class="node"><title>Crew_table</title>
<polygon fill="none" stroke="black" points="0,-219.5 0,-255.5 143,-255.5 143,-219.5 0,-219.5"/>
<text text-anchor="middle" x="50.5" y="-233.8" font-family="Times New Roman,serif" font-size="14.00">Director (idref)</text>
<polyline fill="none" stroke="black" points="101,-219.5 101,-255.5 "/>
<text text-anchor="middle" x="122" y="-233.8" font-family="Times New Roman,serif" font-size="14.00">Cast</text>
</g>
<!-- Movie_table&#45;&gt;Crew_table -->
<g id="edge4" class="edge"><title>Movie_table:f1&#45;&gt;Crew_table:f0</title>
<path fill="none" stroke="black" d="M139.5,-292C139.5,-253.498 67.034,-289.91 52.8805,-266.04"/>
<polygon fill="black" stroke="black" points="56.2128,-264.923 50.5,-256 49.4016,-266.538 56.2128,-264.923"/>
</g>
<!-- Genres_table -->
<g id="node7" class="node"><title>Genres_table</title>
<polygon fill="none" stroke="black" points="161,-219.5 161,-255.5 220,-255.5 220,-219.5 161,-219.5"/>
<text text-anchor="middle" x="190.5" y="-233.8" font-family="Times New Roman,serif" font-size="14.00">Genre+</text>
</g>
<!-- Movie_table&#45;&gt;Genres_table -->
<g id="edge6" class="edge"><title>Movie_table:f2&#45;&gt;Genres_table</title>
<path fill="none" stroke="black" d="M190.5,-292C190.5,-283.51 190.5,-274.262 190.5,-265.88"/>
<polygon fill="black" stroke="black" points="194,-265.848 190.5,-255.848 187,-265.848 194,-265.848"/>
</g>
<!-- Description_table -->
<g id="node8" class="node"><title>Description_table</title>
<polygon fill="none" stroke="black" points="238.5,-219.5 238.5,-255.5 344.5,-255.5 344.5,-219.5 238.5,-219.5"/>
<text text-anchor="middle" x="270" y="-233.8" font-family="Times New Roman,serif" font-size="14.00">Runtime</text>
<polyline fill="none" stroke="black" points="301.5,-219.5 301.5,-255.5 "/>
<text text-anchor="middle" x="323" y="-233.8" font-family="Times New Roman,serif" font-size="14.00">Year</text>
</g>
<!-- Movie_table&#45;&gt;Description_table -->
<g id="edge7" class="edge"><title>Movie_table:f3&#45;&gt;Description_table:f0</title>
<path fill="none" stroke="black" d="M259.5,-292C259.5,-279.416 265.243,-274.767 268.024,-266.026"/>
<polygon fill="black" stroke="black" points="271.507,-266.403 269.5,-256 264.581,-265.384 271.507,-266.403"/>
</g>
<!-- Cast_table -->
<g id="node6" class="node"><title>Cast_table</title>
<polygon fill="none" stroke="black" points="84,-146.5 84,-182.5 161,-182.5 161,-146.5 84,-146.5"/>
<text text-anchor="middle" x="122.5" y="-160.8" font-family="Times New Roman,serif" font-size="14.00">CelebRef+</text>
</g>
<!-- Crew_table&#45;&gt;Cast_table -->
<g id="edge5" class="edge"><title>Crew_table:f1&#45;&gt;Cast_table</title>
<path fill="none" stroke="black" d="M122.5,-219C122.5,-210.51 122.5,-201.262 122.5,-192.88"/>
<polygon fill="black" stroke="black" points="126,-192.848 122.5,-182.848 119,-192.848 126,-192.848"/>
</g>
<!-- TVshow_table -->
<g id="node10" class="node"><title>TVshow_table</title>
<polygon fill="none" stroke="black" points="454,-292.5 454,-328.5 893,-328.5 893,-292.5 454,-292.5"/>
<text text-anchor="middle" x="474.5" y="-306.8" font-family="Times New Roman,serif" font-size="14.00">Title</text>
<polyline fill="none" stroke="black" points="495,-292.5 495,-328.5 "/>
<text text-anchor="middle" x="518.5" y="-306.8" font-family="Times New Roman,serif" font-size="14.00">Crew</text>
<polyline fill="none" stroke="black" points="542,-292.5 542,-328.5 "/>
<text text-anchor="middle" x="570" y="-306.8" font-family="Times New Roman,serif" font-size="14.00">Genres</text>
<polyline fill="none" stroke="black" points="598,-292.5 598,-328.5 "/>
<text text-anchor="middle" x="629.5" y="-306.8" font-family="Times New Roman,serif" font-size="14.00">Seasons</text>
<polyline fill="none" stroke="black" points="661,-292.5 661,-328.5 "/>
<text text-anchor="middle" x="701.5" y="-306.8" font-family="Times New Roman,serif" font-size="14.00">Description</text>
<polyline fill="none" stroke="black" points="742,-292.5 742,-328.5 "/>
<text text-anchor="middle" x="768.5" y="-306.8" font-family="Times New Roman,serif" font-size="14.00">Rating</text>
<polyline fill="none" stroke="black" points="795,-292.5 795,-328.5 "/>
<text text-anchor="middle" x="844" y="-306.8" font-family="Times New Roman,serif" font-size="14.00">att:TVShowID</text>
</g>
<!-- TVshows_table&#45;&gt;TVshow_table -->
<g id="edge9" class="edge"><title>TVshows_table&#45;&gt;TVshow_table:f0</title>
<path fill="none" stroke="black" d="M474.5,-365.152C474.5,-357.545 474.5,-348.282 474.5,-339.153"/>
<polygon fill="black" stroke="black" points="478,-339 474.5,-329 471,-339 478,-339"/>
</g>
<!-- Crew_table2 -->
<g id="node11" class="node"><title>Crew_table2</title>
<polygon fill="none" stroke="black" points="371,-219.5 371,-255.5 514,-255.5 514,-219.5 371,-219.5"/>
<text text-anchor="middle" x="421.5" y="-233.8" font-family="Times New Roman,serif" font-size="14.00">Director (idref)</text>
<polyline fill="none" stroke="black" points="472,-219.5 472,-255.5 "/>
<text text-anchor="middle" x="493" y="-233.8" font-family="Times New Roman,serif" font-size="14.00">Cast</text>
</g>
<!-- TVshow_table&#45;&gt;Crew_table2 -->
<g id="edge10" class="edge"><title>TVshow_table:f1&#45;&gt;Crew_table2:f0</title>
<path fill="none" stroke="black" d="M518.5,-292C518.5,-250.147 438.147,-292.75 423.708,-266.073"/>
<polygon fill="black" stroke="black" points="427.06,-265.019 421.5,-256 420.223,-266.518 427.06,-265.019"/>
</g>
<!-- Genres_table2 -->
<g id="node13" class="node"><title>Genres_table2</title>
<polygon fill="none" stroke="black" points="532,-219.5 532,-255.5 591,-255.5 591,-219.5 532,-219.5"/>
<text text-anchor="middle" x="561.5" y="-233.8" font-family="Times New Roman,serif" font-size="14.00">Genre+</text>
</g>
<!-- TVshow_table&#45;&gt;Genres_table2 -->
<g id="edge12" class="edge"><title>TVshow_table:f2&#45;&gt;Genres_table2</title>
<path fill="none" stroke="black" d="M569.5,-292C569.5,-283.416 568.48,-274.141 567.169,-265.763"/>
<polygon fill="black" stroke="black" points="570.587,-264.992 565.406,-255.75 563.693,-266.206 570.587,-264.992"/>
</g>
<!-- Seasons_table -->
<g id="node14" class="node"><title>Seasons_table</title>
<polygon fill="none" stroke="black" points="609.5,-219.5 609.5,-255.5 769.5,-255.5 769.5,-219.5 609.5,-219.5"/>
<text text-anchor="middle" x="642" y="-233.8" font-family="Times New Roman,serif" font-size="14.00">Season+</text>
<polyline fill="none" stroke="black" points="674.5,-219.5 674.5,-255.5 "/>
<text text-anchor="middle" x="722" y="-233.8" font-family="Times New Roman,serif" font-size="14.00">NoOfSeasons</text>
</g>
<!-- TVshow_table&#45;&gt;Seasons_table -->
<g id="edge13" class="edge"><title>TVshow_table:f3&#45;&gt;Seasons_table:f0</title>
<path fill="none" stroke="black" d="M629.5,-292C629.5,-279.219 636.391,-274.821 639.729,-266.1"/>
<polygon fill="black" stroke="black" points="643.221,-266.454 641.5,-256 636.326,-265.245 643.221,-266.454"/>
</g>
<!-- Description_table2 -->
<g id="node18" class="node"><title>Description_table2</title>
<polygon fill="none" stroke="black" points="788,-219.5 788,-255.5 981,-255.5 981,-219.5 788,-219.5"/>
<text text-anchor="middle" x="819.5" y="-233.8" font-family="Times New Roman,serif" font-size="14.00">Runtime</text>
<polyline fill="none" stroke="black" points="851,-219.5 851,-255.5 "/>
<text text-anchor="middle" x="883.5" y="-233.8" font-family="Times New Roman,serif" font-size="14.00">StarYear</text>
<polyline fill="none" stroke="black" points="916,-219.5 916,-255.5 "/>
<text text-anchor="middle" x="948.5" y="-233.8" font-family="Times New Roman,serif" font-size="14.00">EndYear</text>
</g>
<!-- TVshow_table&#45;&gt;Description_table2 -->
<g id="edge17" class="edge"><title>TVshow_table:f4&#45;&gt;Description_table2:f0</title>
<path fill="none" stroke="black" d="M701.5,-292C701.5,-254.222 752.18,-283.1 778.5,-256 781.133,-253.289 781.374,-249.573 781.445,-246.182"/>
<polygon fill="black" stroke="black" points="784.493,-247.903 786.5,-237.5 778.444,-244.381 784.493,-247.903"/>
</g>
<!-- Cast_table2 -->
<g id="node12" class="node"><title>Cast_table2</title>
<polygon fill="none" stroke="black" points="455,-146.5 455,-182.5 532,-182.5 532,-146.5 455,-146.5"/>
<text text-anchor="middle" x="493.5" y="-160.8" font-family="Times New Roman,serif" font-size="14.00">CelebRef+</text>
</g>
<!-- Crew_table2&#45;&gt;Cast_table2 -->
<g id="edge11" class="edge"><title>Crew_table2:f1&#45;&gt;Cast_table2</title>
<path fill="none" stroke="black" d="M493.5,-219C493.5,-210.51 493.5,-201.262 493.5,-192.88"/>
<polygon fill="black" stroke="black" points="497,-192.848 493.5,-182.848 490,-192.848 497,-192.848"/>
</g>
<!-- Season_table -->
<g id="node15" class="node"><title>Season_table</title>
<polygon fill="none" stroke="black" points="608,-146.5 608,-182.5 873,-182.5 873,-146.5 608,-146.5"/>
<text text-anchor="middle" x="642" y="-160.8" font-family="Times New Roman,serif" font-size="14.00">Episodes</text>
<polyline fill="none" stroke="black" points="676,-146.5 676,-182.5 "/>
<text text-anchor="middle" x="726.5" y="-160.8" font-family="Times New Roman,serif" font-size="14.00">NoOfEpisodes</text>
<polyline fill="none" stroke="black" points="777,-146.5 777,-182.5 "/>
<text text-anchor="middle" x="803.5" y="-160.8" font-family="Times New Roman,serif" font-size="14.00">Rating</text>
<polyline fill="none" stroke="black" points="830,-146.5 830,-182.5 "/>
<text text-anchor="middle" x="851.5" y="-160.8" font-family="Times New Roman,serif" font-size="14.00">Year</text>
</g>
<!-- Seasons_table&#45;&gt;Season_table -->
<g id="edge14" class="edge"><title>Seasons_table:f0&#45;&gt;Season_table:f0</title>
<path fill="none" stroke="black" d="M641.5,-219C641.5,-207 641.5,-201.75 641.5,-193.125"/>
<polygon fill="black" stroke="black" points="645,-193 641.5,-183 638,-193 645,-193"/>
</g>
<!-- Episodes_table -->
<g id="node16" class="node"><title>Episodes_table</title>
<polygon fill="none" stroke="black" points="606,-73.5 606,-109.5 677,-109.5 677,-73.5 606,-73.5"/>
<text text-anchor="middle" x="641.5" y="-87.8" font-family="Times New Roman,serif" font-size="14.00">Episode+</text>
</g>
<!-- Season_table&#45;&gt;Episodes_table -->
<g id="edge15" class="edge"><title>Season_table:f0&#45;&gt;Episodes_table</title>
<path fill="none" stroke="black" d="M641.5,-146C641.5,-137.51 641.5,-128.262 641.5,-119.88"/>
<polygon fill="black" stroke="black" points="645,-119.848 641.5,-109.848 638,-119.848 645,-119.848"/>
</g>
<!-- Episode_table -->
<g id="node17" class="node"><title>Episode_table</title>
<polygon fill="none" stroke="black" points="621.5,-0.5 621.5,-36.5 715.5,-36.5 715.5,-0.5 621.5,-0.5"/>
<text text-anchor="middle" x="642" y="-14.8" font-family="Times New Roman,serif" font-size="14.00">Title</text>
<polyline fill="none" stroke="black" points="662.5,-0.5 662.5,-36.5 "/>
<text text-anchor="middle" x="689" y="-14.8" font-family="Times New Roman,serif" font-size="14.00">Rating</text>
</g>
<!-- Episodes_table&#45;&gt;Episode_table -->
<g id="edge16" class="edge"><title>Episodes_table&#45;&gt;Episode_table:f0</title>
<path fill="none" stroke="black" d="M641.5,-73.1521C641.5,-65.5451 641.5,-56.2817 641.5,-47.1533"/>
<polygon fill="black" stroke="black" points="645,-47 641.5,-37 638,-47 645,-47"/>
</g>
<!-- Actor_table -->
<g id="node20" class="node"><title>Actor_table</title>
<polygon fill="none" stroke="black" points="911.5,-292.5 911.5,-328.5 1307.5,-328.5 1307.5,-292.5 911.5,-292.5"/>
<text text-anchor="middle" x="936" y="-306.8" font-family="Times New Roman,serif" font-size="14.00">Name</text>
<polyline fill="none" stroke="black" points="960.5,-292.5 960.5,-328.5 "/>
<text text-anchor="middle" x="995.5" y="-306.8" font-family="Times New Roman,serif" font-size="14.00">BirthYear</text>
<polyline fill="none" stroke="black" points="1030.5,-292.5 1030.5,-328.5 "/>
<text text-anchor="middle" x="1090.5" y="-306.8" font-family="Times New Roman,serif" font-size="14.00">PrimaryProfession</text>
<polyline fill="none" stroke="black" points="1150.5,-292.5 1150.5,-328.5 "/>
<text text-anchor="middle" x="1189" y="-306.8" font-family="Times New Roman,serif" font-size="14.00">KnownFor</text>
<polyline fill="none" stroke="black" points="1227.5,-292.5 1227.5,-328.5 "/>
<text text-anchor="middle" x="1267.5" y="-306.8" font-family="Times New Roman,serif" font-size="14.00">att:CelebID</text>
</g>
<!-- Actors_table&#45;&gt;Actor_table -->
<g id="edge19" class="edge"><title>Actors_table&#45;&gt;Actor_table:f1</title>
<path fill="none" stroke="black" d="M805.13,-381.473C859.16,-378.823 972.538,-369.627 992.475,-338.782"/>
<polygon fill="black" stroke="black" points="995.889,-339.588 995.5,-329 989.201,-337.519 995.889,-339.588"/>
</g>
<!-- KnownFor_table -->
<g id="node21" class="node"><title>KnownFor_table</title>
<polygon fill="none" stroke="black" points="1154.5,-219.5 1154.5,-255.5 1224.5,-255.5 1224.5,-219.5 1154.5,-219.5"/>
<text text-anchor="middle" x="1189.5" y="-233.8" font-family="Times New Roman,serif" font-size="14.00">TitleRef+</text>
</g>
<!-- Actor_table&#45;&gt;KnownFor_table -->
<g id="edge20" class="edge"><title>Actor_table:f3&#45;&gt;KnownFor_table:f0</title>
<path fill="none" stroke="black" d="M1189.5,-292C1189.5,-283.484 1189.5,-274.22 1189.5,-265.787"/>
<polygon fill="black" stroke="black" points="1193,-265.667 1189.5,-255.667 1186,-265.667 1193,-265.667"/>
</g>
</g>
</svg>
