<?xml version="1.0" encoding="UTF-8" standalone="no"?>
<!DOCTYPE svg PUBLIC "-//W3C//DTD SVG 1.1//EN"
 "http://www.w3.org/Graphics/SVG/1.1/DTD/svg11.dtd">
<!-- Generated by graphviz version 2.38.0 (20140413.2041)
 -->
<!-- Title: g Pages: 1 -->
<svg width="981pt" height="555pt"
 viewBox="0.00 0.00 981.00 555.00" xmlns="http://www.w3.org/2000/svg" xmlns:xlink="http://www.w3.org/1999/xlink">
<g id="graph0" class="graph" transform="scale(1 1) rotate(0) translate(4 551)">
<title>g</title>
<polygon fill="white" stroke="none" points="-4,4 -4,-551 977,-551 977,4 -4,4"/>
<!-- IMDB -->
<g id="node1" class="node"><title>IMDB</title>
<ellipse fill="none" stroke="black" cx="324.5" cy="-529" rx="33.5952" ry="18"/>
<text text-anchor="middle" x="324.5" y="-525.3" font-family="Times New Roman,serif" font-size="14.00">IMDB</text>
</g>
<!-- IMDB_table -->
<g id="node2" class="node"><title>IMDB_table</title>
<polygon fill="none" stroke="black" points="296,-438.5 296,-474.5 425,-474.5 425,-438.5 296,-438.5"/>
<text text-anchor="middle" x="325" y="-452.8" font-family="Times New Roman,serif" font-size="14.00">Movies</text>
<polyline fill="none" stroke="black" points="354,-438.5 354,-474.5 "/>
<text text-anchor="middle" x="389.5" y="-452.8" font-family="Times New Roman,serif" font-size="14.00">TVshows</text>
</g>
<!-- IMDB&#45;&gt;IMDB_table -->
<g id="edge1" class="edge"><title>IMDB&#45;&gt;IMDB_table:f0</title>
<path fill="none" stroke="black" d="M324.5,-510.814C324.5,-503.278 324.5,-494.101 324.5,-485.058"/>
<polygon fill="black" stroke="black" points="328,-485 324.5,-475 321,-485 328,-485"/>
</g>
<!-- Movies_table -->
<g id="node3" class="node"><title>Movies_table</title>
<polygon fill="none" stroke="black" points="235.5,-365.5 235.5,-401.5 295.5,-401.5 295.5,-365.5 235.5,-365.5"/>
<text text-anchor="middle" x="265.5" y="-379.8" font-family="Times New Roman,serif" font-size="14.00">Movie+</text>
</g>
<!-- IMDB_table&#45;&gt;Movies_table -->
<g id="edge2" class="edge"><title>IMDB_table:f0&#45;&gt;Movies_table</title>
<path fill="none" stroke="black" d="M294.5,-456.5C274.418,-456.5 267.889,-432.102 265.939,-411.71"/>
<polygon fill="black" stroke="black" points="269.422,-411.319 265.29,-401.563 262.436,-411.766 269.422,-411.319"/>
</g>
<!-- TVshows_table -->
<g id="node11" class="node"><title>TVshows_table</title>
<polygon fill="none" stroke="black" points="412.5,-365.5 412.5,-401.5 486.5,-401.5 486.5,-365.5 412.5,-365.5"/>
<text text-anchor="middle" x="449.5" y="-379.8" font-family="Times New Roman,serif" font-size="14.00">TVshow+</text>
</g>
<!-- IMDB_table&#45;&gt;TVshows_table -->
<g id="edge10" class="edge"><title>IMDB_table:f1&#45;&gt;TVshows_table</title>
<path fill="none" stroke="black" d="M426.5,-456.5C446.055,-456.5 450.637,-432.102 451.052,-411.71"/>
<polygon fill="black" stroke="black" points="454.55,-411.526 450.946,-401.563 447.551,-411.599 454.55,-411.526"/>
</g>
<!-- Movie_table -->
<g id="node4" class="node"><title>Movie_table</title>
<polygon fill="none" stroke="black" points="47,-292.5 47,-328.5 450,-328.5 450,-292.5 47,-292.5"/>
<text text-anchor="middle" x="67.5" y="-306.8" font-family="Times New Roman,serif" font-size="14.00">Title</text>
<polyline fill="none" stroke="black" points="88,-292.5 88,-328.5 "/>
<text text-anchor="middle" x="111.5" y="-306.8" font-family="Times New Roman,serif" font-size="14.00">Crew</text>
<polyline fill="none" stroke="black" points="135,-292.5 135,-328.5 "/>
<text text-anchor="middle" x="163" y="-306.8" font-family="Times New Roman,serif" font-size="14.00">Genres</text>
<polyline fill="none" stroke="black" points="191,-292.5 191,-328.5 "/>
<text text-anchor="middle" x="231.5" y="-306.8" font-family="Times New Roman,serif" font-size="14.00">Description</text>
<polyline fill="none" stroke="black" points="272,-292.5 272,-328.5 "/>
<text text-anchor="middle" x="298.5" y="-306.8" font-family="Times New Roman,serif" font-size="14.00">Rating</text>
<polyline fill="none" stroke="black" points="325,-292.5 325,-328.5 "/>
<text text-anchor="middle" x="355" y="-306.8" font-family="Times New Roman,serif" font-size="14.00">Sequels</text>
<polyline fill="none" stroke="black" points="385,-292.5 385,-328.5 "/>
<text text-anchor="middle" x="417.5" y="-306.8" font-family="Times New Roman,serif" font-size="14.00">Prequels</text>
</g>
<!-- Movies_table&#45;&gt;Movie_table -->
<g id="edge3" class="edge"><title>Movies_table&#45;&gt;Movie_table:f0</title>
<path fill="none" stroke="black" d="M235.428,-380.618C185.664,-376.757 89.7698,-365.904 70.8047,-338.821"/>
<polygon fill="black" stroke="black" points="74.0066,-337.361 67.5,-329 67.3722,-339.594 74.0066,-337.361"/>
</g>
<!-- Crew_table -->
<g id="node5" class="node"><title>Crew_table</title>
<polygon fill="none" stroke="black" points="0,-219.5 0,-255.5 107,-255.5 107,-219.5 0,-219.5"/>
<text text-anchor="middle" x="31" y="-233.8" font-family="Times New Roman,serif" font-size="14.00">Director</text>
<polyline fill="none" stroke="black" points="62,-219.5 62,-255.5 "/>
<text text-anchor="middle" x="84.5" y="-233.8" font-family="Times New Roman,serif" font-size="14.00">Stars</text>
</g>
<!-- Movie_table&#45;&gt;Crew_table -->
<g id="edge4" class="edge"><title>Movie_table:f1&#45;&gt;Crew_table:f0</title>
<path fill="none" stroke="black" d="M111.5,-292C111.5,-256.76 46.6849,-287.283 33.013,-265.915"/>
<polygon fill="black" stroke="black" points="36.3496,-264.834 30.5,-256 29.5642,-266.553 36.3496,-264.834"/>
</g>
<!-- Genres_table -->
<g id="node7" class="node"><title>Genres_table</title>
<polygon fill="none" stroke="black" points="125,-219.5 125,-255.5 184,-255.5 184,-219.5 125,-219.5"/>
<text text-anchor="middle" x="154.5" y="-233.8" font-family="Times New Roman,serif" font-size="14.00">Genre+</text>
</g>
<!-- Movie_table&#45;&gt;Genres_table -->
<g id="edge6" class="edge"><title>Movie_table:f2&#45;&gt;Genres_table</title>
<path fill="none" stroke="black" d="M162.5,-292C162.5,-283.416 161.48,-274.141 160.169,-265.763"/>
<polygon fill="black" stroke="black" points="163.587,-264.992 158.406,-255.75 156.693,-266.206 163.587,-264.992"/>
</g>
<!-- Description_table -->
<g id="node8" class="node"><title>Description_table</title>
<polygon fill="none" stroke="black" points="202,-219.5 202,-255.5 305,-255.5 305,-219.5 202,-219.5"/>
<text text-anchor="middle" x="233.5" y="-233.8" font-family="Times New Roman,serif" font-size="14.00">Runtime</text>
<polyline fill="none" stroke="black" points="265,-219.5 265,-255.5 "/>
<text text-anchor="middle" x="285" y="-233.8" font-family="Times New Roman,serif" font-size="14.00">year</text>
</g>
<!-- Movie_table&#45;&gt;Description_table -->
<g id="edge7" class="edge"><title>Movie_table:f3&#45;&gt;Description_table:f0</title>
<path fill="none" stroke="black" d="M231.5,-292C231.5,-279.981 232.625,-274.755 233.188,-266.132"/>
<polygon fill="black" stroke="black" points="236.69,-266.103 233.5,-256 229.693,-265.887 236.69,-266.103"/>
</g>
<!-- Sequels_table -->
<g id="node9" class="node"><title>Sequels_table</title>
<polygon fill="none" stroke="black" points="323.5,-219.5 323.5,-255.5 385.5,-255.5 385.5,-219.5 323.5,-219.5"/>
<text text-anchor="middle" x="354.5" y="-233.8" font-family="Times New Roman,serif" font-size="14.00">Sequel+</text>
</g>
<!-- Movie_table&#45;&gt;Sequels_table -->
<g id="edge8" class="edge"><title>Movie_table:f5&#45;&gt;Sequels_table</title>
<path fill="none" stroke="black" d="M355.5,-292C355.5,-283.509 355.373,-274.26 355.209,-265.878"/>
<polygon fill="black" stroke="black" points="358.707,-265.767 354.988,-255.846 351.709,-265.921 358.707,-265.767"/>
</g>
<!-- Prequels_table -->
<g id="node10" class="node"><title>Prequels_table</title>
<polygon fill="none" stroke="black" points="404,-219.5 404,-255.5 471,-255.5 471,-219.5 404,-219.5"/>
<text text-anchor="middle" x="437.5" y="-233.8" font-family="Times New Roman,serif" font-size="14.00">Prequel+</text>
</g>
<!-- Movie_table&#45;&gt;Prequels_table -->
<g id="edge9" class="edge"><title>Movie_table:f6&#45;&gt;Prequels_table</title>
<path fill="none" stroke="black" d="M417.5,-292C417.5,-282.877 420.083,-273.402 423.392,-265.006"/>
<polygon fill="black" stroke="black" points="426.651,-266.291 427.5,-255.731 420.25,-263.457 426.651,-266.291"/>
</g>
<!-- Stars_table -->
<g id="node6" class="node"><title>Stars_table</title>
<polygon fill="none" stroke="black" points="57.5,-146.5 57.5,-182.5 111.5,-182.5 111.5,-146.5 57.5,-146.5"/>
<text text-anchor="middle" x="84.5" y="-160.8" font-family="Times New Roman,serif" font-size="14.00">Star+</text>
</g>
<!-- Crew_table&#45;&gt;Stars_table -->
<g id="edge5" class="edge"><title>Crew_table:f1&#45;&gt;Stars_table</title>
<path fill="none" stroke="black" d="M84.5,-219C84.5,-210.51 84.5,-201.262 84.5,-192.88"/>
<polygon fill="black" stroke="black" points="88.0001,-192.848 84.5,-182.848 81.0001,-192.848 88.0001,-192.848"/>
</g>
<!-- TVshow_table -->
<g id="node12" class="node"><title>TVshow_table</title>
<polygon fill="none" stroke="black" points="528,-292.5 528,-328.5 869,-328.5 869,-292.5 528,-292.5"/>
<text text-anchor="middle" x="548.5" y="-306.8" font-family="Times New Roman,serif" font-size="14.00">Title</text>
<polyline fill="none" stroke="black" points="569,-292.5 569,-328.5 "/>
<text text-anchor="middle" x="592.5" y="-306.8" font-family="Times New Roman,serif" font-size="14.00">Crew</text>
<polyline fill="none" stroke="black" points="616,-292.5 616,-328.5 "/>
<text text-anchor="middle" x="644" y="-306.8" font-family="Times New Roman,serif" font-size="14.00">Genres</text>
<polyline fill="none" stroke="black" points="672,-292.5 672,-328.5 "/>
<text text-anchor="middle" x="703.5" y="-306.8" font-family="Times New Roman,serif" font-size="14.00">Seasons</text>
<polyline fill="none" stroke="black" points="735,-292.5 735,-328.5 "/>
<text text-anchor="middle" x="775.5" y="-306.8" font-family="Times New Roman,serif" font-size="14.00">Description</text>
<polyline fill="none" stroke="black" points="816,-292.5 816,-328.5 "/>
<text text-anchor="middle" x="842.5" y="-306.8" font-family="Times New Roman,serif" font-size="14.00">Rating</text>
</g>
<!-- TVshows_table&#45;&gt;TVshow_table -->
<g id="edge11" class="edge"><title>TVshows_table&#45;&gt;TVshow_table:f0</title>
<path fill="none" stroke="black" d="M458.129,-365.437C468.924,-346.474 489.318,-317.712 516.277,-311.647"/>
<polygon fill="black" stroke="black" points="516.953,-315.093 526.5,-310.5 516.172,-308.137 516.953,-315.093"/>
</g>
<!-- Crew_table2 -->
<g id="node13" class="node"><title>Crew_table2</title>
<polygon fill="none" stroke="black" points="489,-219.5 489,-255.5 596,-255.5 596,-219.5 489,-219.5"/>
<text text-anchor="middle" x="520" y="-233.8" font-family="Times New Roman,serif" font-size="14.00">Director</text>
<polyline fill="none" stroke="black" points="551,-219.5 551,-255.5 "/>
<text text-anchor="middle" x="573.5" y="-233.8" font-family="Times New Roman,serif" font-size="14.00">Stars</text>
</g>
<!-- TVshow_table&#45;&gt;Crew_table2 -->
<g id="edge12" class="edge"><title>TVshow_table:f1&#45;&gt;Crew_table2:f0</title>
<path fill="none" stroke="black" d="M592.5,-292C592.5,-259.923 535.102,-284.87 522.098,-265.713"/>
<polygon fill="black" stroke="black" points="525.465,-264.756 519.5,-256 518.703,-266.565 525.465,-264.756"/>
</g>
<!-- Genres_table2 -->
<g id="node15" class="node"><title>Genres_table2</title>
<polygon fill="none" stroke="black" points="614,-219.5 614,-255.5 673,-255.5 673,-219.5 614,-219.5"/>
<text text-anchor="middle" x="643.5" y="-233.8" font-family="Times New Roman,serif" font-size="14.00">Genre+</text>
</g>
<!-- TVshow_table&#45;&gt;Genres_table2 -->
<g id="edge14" class="edge"><title>TVshow_table:f2&#45;&gt;Genres_table2</title>
<path fill="none" stroke="black" d="M643.5,-292C643.5,-283.51 643.5,-274.262 643.5,-265.88"/>
<polygon fill="black" stroke="black" points="647,-265.848 643.5,-255.848 640,-265.848 647,-265.848"/>
</g>
<!-- Seasons_table -->
<g id="node16" class="node"><title>Seasons_table</title>
<polygon fill="none" stroke="black" points="691.5,-219.5 691.5,-255.5 851.5,-255.5 851.5,-219.5 691.5,-219.5"/>
<text text-anchor="middle" x="724" y="-233.8" font-family="Times New Roman,serif" font-size="14.00">Season+</text>
<polyline fill="none" stroke="black" points="756.5,-219.5 756.5,-255.5 "/>
<text text-anchor="middle" x="804" y="-233.8" font-family="Times New Roman,serif" font-size="14.00">NoOfSeasons</text>
</g>
<!-- TVshow_table&#45;&gt;Seasons_table -->
<g id="edge15" class="edge"><title>TVshow_table:f3&#45;&gt;Seasons_table:f0</title>
<path fill="none" stroke="black" d="M703.5,-292C703.5,-277.844 715.464,-274.999 720.885,-265.968"/>
<polygon fill="black" stroke="black" points="724.348,-266.561 723.5,-256 717.577,-264.785 724.348,-266.561"/>
</g>
<!-- Description_table2 -->
<g id="node20" class="node"><title>Description_table2</title>
<polygon fill="none" stroke="black" points="870,-219.5 870,-255.5 973,-255.5 973,-219.5 870,-219.5"/>
<text text-anchor="middle" x="901.5" y="-233.8" font-family="Times New Roman,serif" font-size="14.00">Runtime</text>
<polyline fill="none" stroke="black" points="933,-219.5 933,-255.5 "/>
<text text-anchor="middle" x="953" y="-233.8" font-family="Times New Roman,serif" font-size="14.00">year</text>
</g>
<!-- TVshow_table&#45;&gt;Description_table2 -->
<g id="edge19" class="edge"><title>TVshow_table:f4&#45;&gt;Description_table2:f0</title>
<path fill="none" stroke="black" d="M775.5,-292C775.5,-250.974 831.381,-284.901 860.5,-256 863.182,-253.338 863.431,-249.629 863.494,-246.231"/>
<polygon fill="black" stroke="black" points="866.563,-247.916 868.5,-237.5 860.49,-244.435 866.563,-247.916"/>
</g>
<!-- Stars_table2 -->
<g id="node14" class="node"><title>Stars_table2</title>
<polygon fill="none" stroke="black" points="546.5,-146.5 546.5,-182.5 600.5,-182.5 600.5,-146.5 546.5,-146.5"/>
<text text-anchor="middle" x="573.5" y="-160.8" font-family="Times New Roman,serif" font-size="14.00">Star+</text>
</g>
<!-- Crew_table2&#45;&gt;Stars_table2 -->
<g id="edge13" class="edge"><title>Crew_table2:f1&#45;&gt;Stars_table2</title>
<path fill="none" stroke="black" d="M573.5,-219C573.5,-210.51 573.5,-201.262 573.5,-192.88"/>
<polygon fill="black" stroke="black" points="577,-192.848 573.5,-182.848 570,-192.848 577,-192.848"/>
</g>
<!-- Season_table -->
<g id="node17" class="node"><title>Season_table</title>
<polygon fill="none" stroke="black" points="690,-146.5 690,-182.5 955,-182.5 955,-146.5 690,-146.5"/>
<text text-anchor="middle" x="724" y="-160.8" font-family="Times New Roman,serif" font-size="14.00">Episodes</text>
<polyline fill="none" stroke="black" points="758,-146.5 758,-182.5 "/>
<text text-anchor="middle" x="808.5" y="-160.8" font-family="Times New Roman,serif" font-size="14.00">NoOfEpisodes</text>
<polyline fill="none" stroke="black" points="859,-146.5 859,-182.5 "/>
<text text-anchor="middle" x="885.5" y="-160.8" font-family="Times New Roman,serif" font-size="14.00">Rating</text>
<polyline fill="none" stroke="black" points="912,-146.5 912,-182.5 "/>
<text text-anchor="middle" x="933.5" y="-160.8" font-family="Times New Roman,serif" font-size="14.00">Year</text>
</g>
<!-- Seasons_table&#45;&gt;Season_table -->
<g id="edge16" class="edge"><title>Seasons_table:f0&#45;&gt;Season_table:f0</title>
<path fill="none" stroke="black" d="M723.5,-219C723.5,-207 723.5,-201.75 723.5,-193.125"/>
<polygon fill="black" stroke="black" points="727,-193 723.5,-183 720,-193 727,-193"/>
</g>
<!-- Episodes_table -->
<g id="node18" class="node"><title>Episodes_table</title>
<polygon fill="none" stroke="black" points="688,-73.5 688,-109.5 759,-109.5 759,-73.5 688,-73.5"/>
<text text-anchor="middle" x="723.5" y="-87.8" font-family="Times New Roman,serif" font-size="14.00">Episode+</text>
</g>
<!-- Season_table&#45;&gt;Episodes_table -->
<g id="edge17" class="edge"><title>Season_table:f0&#45;&gt;Episodes_table</title>
<path fill="none" stroke="black" d="M723.5,-146C723.5,-137.51 723.5,-128.262 723.5,-119.88"/>
<polygon fill="black" stroke="black" points="727,-119.848 723.5,-109.848 720,-119.848 727,-119.848"/>
</g>
<!-- Episode_table -->
<g id="node19" class="node"><title>Episode_table</title>
<polygon fill="none" stroke="black" points="703.5,-0.5 703.5,-36.5 797.5,-36.5 797.5,-0.5 703.5,-0.5"/>
<text text-anchor="middle" x="724" y="-14.8" font-family="Times New Roman,serif" font-size="14.00">Title</text>
<polyline fill="none" stroke="black" points="744.5,-0.5 744.5,-36.5 "/>
<text text-anchor="middle" x="771" y="-14.8" font-family="Times New Roman,serif" font-size="14.00">Rating</text>
</g>
<!-- Episodes_table&#45;&gt;Episode_table -->
<g id="edge18" class="edge"><title>Episodes_table&#45;&gt;Episode_table:f0</title>
<path fill="none" stroke="black" d="M723.5,-73.1521C723.5,-65.5451 723.5,-56.2817 723.5,-47.1533"/>
<polygon fill="black" stroke="black" points="727,-47 723.5,-37 720,-47 727,-47"/>
</g>
</g>
</svg>
